<?xml version="1.0" encoding="UTF-8" standalone="no"?>
<svg width="346px" height="403px" viewBox="0 0 346 403" version="1.1" xmlns="http://www.w3.org/2000/svg" xmlns:xlink="http://www.w3.org/1999/xlink">
    <!-- Generator: Sketch 40.1 (33804) - http://www.bohemiancoding.com/sketch -->
    <title>Page 1</title>
    <desc>Created with Sketch.</desc>
    <defs></defs>
    <g id="Page-1" stroke="none" stroke-width="1" fill="none" fill-rule="evenodd">
        <g id="Custom-Preset-Copy-2" transform="translate(-327.000000, -298.000000)" stroke="#0A1E3D" stroke-width="2" fill="#FFFFFF">
            <g id="Page-1" transform="translate(328.000000, 300.000000)">
                <path d="M162.386261,152.436165 C164.309456,151.189423 165.759317,150.026031 166.415311,149.044254 C169.39319,144.578441 179.077663,141.601525 183.547556,144.578441 C188.018326,147.555357 194.723164,152.02117 196.957232,151.27716 C199.1913,150.532273 202.916502,140.858393 202.171813,134.158797 C201.426246,127.460956 196.955475,120.762237 191.741772,120.762237 C186.527191,120.762237 183.547556,120.018227 179.078542,112.575499 C174.609528,105.132771 181.312609,97.6900425 185.037812,96.2020232 C188.763015,94.714004 202.917381,90.2481915 205.896138,89.5033045 C208.874895,88.7592949 214.833287,88.7592949 214.089476,82.8054632 C213.345665,76.8525089 217.816435,70.8977998 221.539882,67.1768743 C223.067022,65.6511282 229.223881,62.1249788 236.266815,58.4444124 C235.460654,48.2362143 234.165351,37.6130203 231.501857,27.4995782 C228.853293,17.4870337 220.169056,8.48785127 208.618469,0.538003183 C206.203498,9.00637684 200.052786,16.2876691 192.172954,25.2807099 C176.674987,42.9948069 165.590708,67.3348009 130.156495,56.2737994 C94.7091093,45.1996373 59.2608455,73.9747358 23.824876,98.3164845 C17.1797535,103.852688 18.8403755,105.512672 25.4863761,120.452526 C27.8802712,125.830803 32.6434725,135.732799 37.7588205,146.430569 C41.4427492,146.898207 44.4970291,147.557112 45.7352506,148.300244 C49.4604534,150.532273 59.888738,156.486105 62.8692515,158.719011 C65.8488868,160.952794 89.6877257,166.906626 94.1567396,168.394645 C98.6257535,169.882665 115.015943,169.139532 118.73939,169.139532 C122.462836,169.139532 132.145553,167.651513 138.107458,164.67372 C142.756497,162.350445 155.56287,156.859864 162.386261,152.436165" id="Stroke-1"></path>
                <path d="M214.089388,82.8056387 C214.833199,88.7594704 208.874807,88.7594704 205.89605,89.50348 C202.917293,90.248367 188.762927,94.7141795 185.037724,96.2021987 C181.312522,97.690218 174.60944,105.132946 179.078454,112.575675 C183.547468,120.018403 186.527103,120.762413 191.741684,120.762413 C196.955388,120.762413 201.426158,127.460254 202.171725,134.158973 C202.916415,140.858569 199.191212,150.532448 196.957144,151.277335 C194.723076,152.021345 188.018238,147.555533 183.547468,144.578617 C179.077576,141.601701 169.39398,144.578617 166.415223,149.044429 C165.759229,150.026206 164.309368,151.188721 162.386173,152.436341 C165.345611,156.767038 167.64115,160.386189 167.903724,161.696102 C168.649291,165.417028 169.394859,175.838427 173.863872,176.581559 C178.332886,177.325568 191.741684,181.791381 192.486374,185.512306 C193.231941,189.233232 202.916415,204.118689 193.231941,206.351595 C183.547468,208.584501 170.884237,211.560539 172.374494,219.748155 C173.863872,227.934893 173.863872,237.608773 179.078454,241.331453 C181.970272,243.395027 189.214307,252.55389 195.093664,260.304575 C199.791003,258.506845 203.73487,256.935475 205.89605,256.215155 C212.600888,253.984003 241.654308,242.818595 243.888376,233.888724 C246.122444,224.957977 244.633065,218.259258 241.652552,210.81653 C238.672038,203.373802 234.203025,178.814465 243.142809,175.09354 C252.082593,171.371737 255.805161,167.649934 260.275931,173.603766 C262.862146,177.050074 277.167557,175.261117 288.766444,173.142269 C288.358094,168.941422 287.787283,164.093077 286.32864,158.629695 C279.683518,133.730816 251.438893,122.112685 243.132271,108.832815 C237.488263,99.8116982 237.976527,80.0656127 236.266727,58.4437105 C229.223793,62.1251543 223.066934,65.6513037 221.539794,67.1770498 C217.816347,70.8979753 213.345577,76.851807 214.089388,82.8056387 L214.089388,82.8056387 Z" id="Stroke-3"></path>
                <path d="M76.2774348,327.664645 C84.4716514,323.944596 90.4309221,307.571121 85.9619082,306.081347 C81.4920161,304.59245 65.8491502,309.058262 63.6142042,303.84844 C61.37838,298.639496 68.0814617,280.031359 75.5318673,280.031359 C82.983151,280.031359 128.42237,253.239116 131.402005,251.751974 C134.382519,250.2622 143.321425,258.448061 144.810803,264.40277 C146.30106,270.358356 154.495277,268.868582 164.92444,268.868582 C171.992841,268.868582 185.215466,264.084285 195.094016,260.304575 C189.21378,252.55389 181.969745,243.395027 179.078805,241.331453 C173.864224,237.608773 173.864224,227.934893 172.374845,219.748155 C170.88371,211.560539 183.546941,208.584501 193.232292,206.351595 C202.916766,204.118689 193.232292,189.233232 192.486725,185.512306 C191.741157,181.791381 178.333238,177.325568 173.864224,176.581559 C169.39521,175.838427 168.649642,165.417028 167.904075,161.696102 C167.641502,160.386189 165.345962,156.767038 162.386524,152.436341 C155.563133,156.859162 142.756761,162.35062 138.106844,164.673895 C132.145817,167.651689 122.463099,169.138831 118.739653,169.138831 C115.015328,169.138831 98.6251388,169.88284 94.1561249,168.394821 C89.6879891,166.906802 65.8491502,160.952093 62.8686367,158.719186 C59.8890014,156.48628 49.4607169,150.532448 45.7355141,148.299542 C44.4972925,147.557287 41.4430126,146.898383 37.7590839,146.430744 C46.8490353,165.444226 57.0533862,186.980146 57.0533862,190.167631 C57.0533862,195.147582 45.4237633,208.426574 27.1490179,230.005486 C8.87251621,251.583519 -2.75535036,258.224332 0.565015433,274.821537 C0.968096073,276.857912 1.20081148,278.562642 1.21486222,279.971698 C7.32781284,288.97088 14.9081878,296.667168 23.8251394,301.381276 C37.8047488,308.77224 39.5575788,317.389766 36.5586237,325.008846 C50.2264823,323.757717 62.4646779,323.608564 65.9053532,326.280155 C68.1499591,328.024366 69.4136477,330.217791 70.3181641,332.434027 C72.2624354,330.294999 74.2690569,328.576232 76.2774348,327.664645 L76.2774348,327.664645 Z" id="Stroke-5"></path>
                <path d="M195.09384,260.304224 C185.215291,264.084811 171.992665,268.869109 164.925142,268.869109 C154.495979,268.869109 146.300885,270.358005 144.810628,264.403296 C143.321249,258.448587 134.382343,250.262727 131.402708,251.751623 C128.422194,253.238765 82.9829754,280.031008 75.5325698,280.031008 C68.0812861,280.031008 61.3782044,298.639145 63.6140286,303.848967 C65.8489746,309.057912 81.4927187,304.592976 85.9626107,306.081873 C90.4307464,307.57077 84.4714758,323.944246 76.2772591,327.664294 C74.2688813,328.575881 72.2622598,330.294648 70.3179885,332.433676 C72.4264778,337.595243 72.5546909,342.877887 78.3655505,342.877887 C86.6739295,342.877887 93.3181738,343.709633 95.8121803,355.32601 C98.3026742,366.947651 102.457303,391.014783 118.239798,390.183913 C134.024049,389.354799 135.68555,400.974685 143.993929,399.313824 C152.298795,397.655595 170.575296,399.313824 170.575296,394.336505 C170.575296,389.354799 180.543419,376.075806 188.018414,376.075806 C194.678465,376.075806 197.390258,384.556463 202.011196,384.104618 C202.582007,384.044079 203.166869,383.908964 203.802665,383.543978 C209.617916,380.224888 219.586038,370.264986 233.709668,361.13683 C247.830663,352.00692 253.645035,349.516944 276.906037,349.516944 C300.163527,349.516944 318.440907,342.877887 324.255279,332.08887 C328.084984,324.983051 335.509045,287.673777 343.466155,260.634993 C341.116169,257.968666 340.077292,254.061738 339.494186,249.923185 C337.832686,238.305053 336.16943,190.168157 319.556184,191.828141 C289.619324,194.818217 290.219993,188.082649 288.766619,173.142796 C277.167732,175.260766 262.862321,177.049723 260.276107,173.604292 C255.805337,167.65046 252.082768,171.371386 243.142984,175.093189 C234.2032,178.814114 238.672214,203.374328 241.652728,210.816179 C244.633241,218.258907 246.121741,224.958503 243.887674,233.889251 C241.654484,242.818244 212.601064,253.98453 205.896226,256.215681 C203.735046,256.935124 199.791178,258.506494 195.09384,260.304224" id="Stroke-7"></path>
            </g>
        </g>
    </g>
</svg>