<?xml version="1.0" encoding="UTF-8" standalone="no"?>
<svg width="602px" height="407px"  version="1.1" xmlns="http://www.w3.org/2000/svg" xmlns:xlink="http://www.w3.org/1999/xlink">
    <!-- Generator: Sketch 40.1 (33804) - http://www.bohemiancoding.com/sketch -->
    <title>Carte de france</title>
    <desc>Created with Sketch.</desc>
    <defs></defs>
        <g id="layer0" >
            <path d="M190.868725,271.039076 C195.250957,272.326999 200.189823,273.017771 201.161403,271.061848 C202.426482,268.531547 193.887202,260.624356 204.3241,260.308068 C214.760998,259.991781 221.08639,257.777767 221.40266,256.196329 C221.71893,254.61489 226.146705,253.033452 230.890749,250.819439 C235.634794,248.605425 237.532411,239.116795 237.848681,236.586494 C238.164951,234.056193 235.951063,229.311878 235.951063,226.149002 C235.951063,222.986125 225.830435,213.497495 223.616548,210.334619 C222.84738,209.231408 223.320519,206.766894 224.330052,203.905124 C217.994539,201.597489 213.392183,199.213945 207.803066,196.417962 C200.845134,192.938798 195.15228,199.580839 191.040775,198.948263 C186.92927,198.315688 185.347922,193.571373 184.082843,189.775921 C182.817765,185.98047 175.227293,185.98047 172.064597,187.561908 C168.901901,189.143346 165.422935,187.561908 164.157856,185.347894 C162.892778,183.133881 162.260238,179.971004 160.99516,176.49184 C159.730081,173.012676 160.67889,172.380101 167.004283,169.217224 C173.329676,166.054347 165.106665,159.096019 163.209047,155.300567 C162.424699,153.72419 161.035642,150.341177 159.682008,146.657058 C157.923549,146.831649 156.888715,143.597924 154.353498,143.597924 C151.507071,143.597924 147.711835,148.658527 147.711835,150.556252 C147.711835,152.453978 140.753903,151.821403 137.591207,152.453978 C134.428511,153.086554 133.795971,148.658527 127.786848,148.974814 C121.777725,149.291102 120.196377,140.11876 119.247568,135.690733 C118.298759,131.262706 115.768602,130.946418 112.605906,130.946418 C109.443209,130.946418 110.708288,126.834678 107.861861,124.620665 C106.55377,123.603484 101.893221,123.65915 96.6886876,124.137377 C95.5273455,127.10036 92.4936872,129.668616 90.5758281,130.946418 C86.7805925,133.476719 84.8829747,143.597924 85.515514,148.658527 C86.1480532,153.719129 89.3107496,158.779731 84.8829747,162.575183 C80.4551998,166.370635 76.6599642,171.431238 74.7623464,175.859265 C73.8793216,177.91893 69.4363657,183.80188 64.5632832,189.51277 C71.888088,191.483875 78.5778233,193.298101 79.3975942,193.571373 C81.295212,194.203949 86.0392565,193.571373 89.5182225,193.571373 C92.9971884,193.571373 89.8344921,200.213414 89.8344921,203.060003 C89.8344921,205.906592 95.2110759,204.325154 100.58766,204.008866 C105.964243,203.692578 112.605906,212.548633 117.34995,225.832714 C122.093995,239.116795 116.401141,239.433083 113.554715,242.912247 C110.708288,246.391411 111.973367,254.61489 115.452333,254.931178 C118.931298,255.247466 126.2055,251.768302 136.958668,268.531547 C137.879645,269.963698 138.585559,271.312348 139.207977,272.625575 C147.109658,268.825062 157.053175,264.133884 162.576508,261.889506 C172.697136,257.777767 182.501495,267.898972 187.24554,269.796698 C188.328447,270.229379 189.573284,270.659531 190.868725,271.039076" id="Stroke-3" stroke="#29235C" fill="#0a1e3d"></path>
            <path d="M224.32904,203.904617 C225.880026,204.468875 227.506917,205.030602 229.310919,205.592328 C238.482738,208.438917 256.193838,208.12263 260.305343,210.336643 C264.416849,212.550657 271.69105,217.294972 275.802555,222.355574 C279.914061,227.416176 284.025566,231.211628 284.974375,229.63019 C285.923184,228.048752 289.08588,222.355574 292.564846,225.518451 C294.976086,227.707161 300.109774,229.584645 305.455996,227.390873 C302.768969,224.936481 301.440637,222.168332 306.060704,219.086425 C313.651175,214.025822 306.905776,204.747208 306.905776,195.471123 C306.905776,186.192509 311.121018,188.72281 318.711489,180.289316 C326.30196,171.853292 318.711489,169.322991 325.456888,159.201786 C332.207347,149.080581 335.582577,145.707689 328.832118,135.586484 C322.190455,125.624688 309.031108,136.889589 315.854942,122.767978 C303.345845,122.972933 288.842985,123.585266 283.501823,125.255264 C273.381195,128.418141 264.525645,127.785566 261.362949,125.88784 C258.200253,123.990114 270.218499,115.766635 268.320881,111.971183 C266.423263,108.175731 263.260567,95.524225 255.037556,99.3196768 C246.814546,103.115129 243.01931,103.115129 239.856614,98.6871015 C236.693917,94.2590743 236.061378,92.3613484 225.308211,98.0545262 C218.383171,101.718402 215.142039,101.4426 213.53539,99.6056008 C210.506792,109.911518 207.680606,124.12928 206.223236,126.836703 C204.009348,130.948442 197.051416,133.478743 188.195867,133.478743 C179.340317,133.478743 177.126429,134.427606 171.749846,137.906771 C166.373262,141.385935 162.578026,145.181387 160.364139,146.446537 C160.121244,146.585704 159.89859,146.63631 159.680996,146.656552 C161.03463,150.340671 162.423687,153.723684 163.210565,155.302591 C165.108183,159.098043 173.331194,166.056372 167.005801,169.219248 C160.680408,172.382125 159.731599,173.0147 160.996678,176.493864 C162.261757,179.973028 162.894296,183.135905 164.159374,185.349919 C165.424453,187.563932 168.903419,189.14537 172.066115,187.563932 C175.228812,185.982494 182.819283,185.982494 184.084361,189.777946 C185.34944,193.573398 186.930788,198.317712 191.042293,198.950288 C195.153799,199.582863 200.846652,192.940822 207.804584,196.419986 C213.393701,199.213439 217.993526,201.596983 224.32904,203.904617" id="Stroke-7" stroke="#0A1E3D" fill="#0a1e3d"></path>
            <path d="M159.681502,146.657564 C159.899096,146.634792 160.12175,146.584186 160.364645,146.445019 C162.578532,145.179868 166.373768,141.384417 171.750352,137.905252 C177.126935,134.426088 179.340823,133.477225 188.196373,133.477225 C197.051922,133.477225 204.009854,130.946924 206.223742,126.835184 C207.681112,124.127762 210.507298,109.91 213.535896,99.606613 C212.64275,98.5894319 212.245516,97.1016147 212.025392,95.5227068 C211.392853,91.0946796 210.760313,72.7499957 204.434921,73.382571 C189.830854,74.8425548 194.314292,70.2196945 191.784135,60.7310649 C189.253978,51.2424353 178.500811,46.8144081 175.338114,41.7538057 C172.175418,36.6932032 174.073036,22.7765465 170.910339,10.7576156 C169.900807,6.94192137 166.593891,3.51083291 162.196478,0.482062336 C161.278031,3.7081964 158.935106,6.48646715 155.93687,9.91502532 C150.034013,16.6633387 145.816242,25.9419533 132.322914,21.7239411 C118.829586,17.505929 105.333728,28.4697242 91.8404006,37.7483388 C89.3102436,39.8560798 89.9427828,40.4886551 92.4729399,46.1818328 C95.003097,51.8750106 104.491186,70.8522698 104.491186,72.7499957 C104.491186,74.6477216 100.063411,79.7083241 93.1054792,87.9318031 C86.1475472,96.1552821 81.7197723,98.6855833 82.9848509,105.011336 C83.1391904,105.788139 83.2277459,106.435896 83.2328063,106.97232 C85.5605508,110.400878 88.44746,113.336027 91.8404006,115.132541 C97.1638511,117.951297 97.8318126,121.233098 96.6907118,124.137883 C101.892715,123.659656 106.553264,123.60399 107.863885,124.621171 C110.710312,126.835184 109.445234,130.946924 112.60793,130.946924 C115.770626,130.946924 118.300783,131.263212 119.249592,135.691239 C120.198401,140.119266 121.779749,149.291608 127.788872,148.97532 C133.797995,148.659033 134.430535,153.08706 137.593231,152.454484 C140.755927,151.821909 147.713859,152.454484 147.713859,150.556759 C147.713859,148.659033 151.509095,143.59843 154.355522,143.59843 C156.888209,143.59843 157.923043,146.832155 159.681502,146.657564" id="Stroke-11" stroke="#29235C" fill="#0a1e3d"></path>
            <path d="M139.207977,272.626587 C138.585559,271.31336 137.879645,269.96218 136.958668,268.532559 C126.2055,251.769314 118.931298,255.248478 115.452333,254.93219 C111.973367,254.615903 110.708288,246.392424 113.554715,242.913259 C116.401141,239.434095 122.093995,239.117808 117.34995,225.833726 C112.605906,212.549645 105.964243,203.69359 100.58766,204.009878 C95.2110759,204.326166 89.8344921,205.907604 89.8344921,203.061015 C89.8344921,200.214426 92.9971884,193.572385 89.5182225,193.572385 C86.0392565,193.572385 81.295212,194.204961 79.3975942,193.572385 C78.5778233,193.296583 71.888088,191.482357 64.5632832,189.511252 C58.9488647,196.084975 52.7575703,202.42844 50.7258542,202.42844 C46.9306185,202.42844 39.3401473,191.042084 38.0750688,197.367837 C36.8099902,203.69359 30.4845975,211.284494 26.0568227,206.223892 C21.6290478,201.163289 20.9965085,201.795864 18.4663514,211.284494 C15.946315,220.727578 4.66434457,265.863092 0.810915343,271.288057 C4.18108457,274.461055 7.05787317,277.18872 8.34572312,277.704901 C11.5084195,278.970052 19.73143,282.132928 15.9361944,286.560956 C12.1409587,290.988983 19.0988907,293.519284 23.5266656,292.886709 C27.9544405,292.254133 26.0568227,308.068516 29.219519,309.333667 C32.3822154,310.598817 43.7679222,311.863968 50.0933149,307.435941 C56.4187076,303.007914 58.3163254,297.314736 62.111561,299.845037 C65.9067966,302.375338 74.1298071,314.394269 77.9250427,323.882899 C80.5690569,330.494576 85.0524952,337.721116 87.3144557,344.492202 C90.5555869,342.928476 93.1945407,341.595007 93.6297277,341.595007 C94.5785366,341.595007 103.750356,341.911295 104.066626,332.106378 C104.382895,322.30146 103.434086,296.998448 112.289636,298.263599 C121.145186,299.528749 123.675343,302.691626 130.317005,298.263599 C136.396973,294.212587 145.8547,286.702652 139.207977,272.626587" id="Stroke-15" stroke="#29235C" fill="#0a1e3d"></path>
            <path d="M304.37486,251.980341 C309.435174,245.232027 315.340561,235.110823 311.120259,231.737931 C309.470597,230.419644 307.185865,228.967251 305.457767,227.390873 C300.109015,229.584645 294.975327,227.707161 292.564087,225.518451 C289.085121,222.355574 285.922425,228.048752 284.973616,229.63019 C284.024807,231.211628 279.913302,227.416176 275.801796,222.355574 C271.690291,217.294972 264.416089,212.550657 260.304584,210.336643 C256.193079,208.12263 238.481979,208.438917 229.31016,205.592328 C227.506158,205.030602 225.881797,204.468875 224.328281,203.904617 C223.321278,206.766388 222.845609,209.230902 223.617307,210.336643 C225.831194,213.49952 235.951822,222.988149 235.951822,226.151026 C235.951822,229.313902 238.16571,234.058217 237.84944,236.588518 C237.533171,239.11882 235.635553,248.607449 230.891508,250.821463 C226.147464,253.035476 221.719689,254.616915 221.403419,256.198353 C221.08715,257.779791 214.761757,259.993805 204.324859,260.310092 C193.887961,260.62638 202.427241,268.533571 201.162163,271.063873 C200.188052,273.017265 195.251716,272.329023 190.869484,271.03857 C190.64683,272.964129 190.383693,274.768234 190.092725,276.124475 C189.143916,280.552502 183.134793,284.980529 192.939152,285.296817 C202.743511,285.613105 208.752634,283.399091 213.180409,292.571433 C217.608184,301.743775 224.566116,305.855515 222.352228,309.334679 C220.138341,312.813843 219.822071,315.027857 220.138341,316.609295 C220.45461,318.190733 229.942699,322.302473 223.933576,326.7305 C217.924453,331.158527 215.394296,331.158527 218.556992,336.535417 C221.719689,341.912307 218.556992,346.656622 219.189532,348.23806 C219.822071,349.819498 215.710566,350.452074 221.08715,355.196389 C226.463733,359.940703 232.156587,365.633881 229.62643,373.541072 C227.847729,379.102675 226.09433,387.202169 225.411188,396.888162 C226.57253,397.052631 227.604834,397.181677 228.470148,397.262646 C231.450673,397.533389 234.079506,396.526329 236.118813,395.784951 C242.095044,389.350395 247.722113,383.859641 250.396489,382.713414 C256.301876,380.183113 273.167903,384.398595 276.543132,380.183113 C279.913302,375.965101 269.797734,364.158715 275.69806,359.095583 C281.603446,354.03498 284.973616,351.504679 292.564087,349.819498 C300.154558,348.131788 304.37486,348.131788 306.059945,343.071185 C307.745029,338.010583 312.810404,336.322872 318.71073,338.853173 C319.705082,339.278264 320.577986,339.855172 321.417998,340.492808 C323.242242,328.731968 325.435888,316.237341 326.301201,310.177269 C327.986286,298.368353 322.08596,277.283353 317.025646,268.004739 C311.965331,258.728654 299.314546,258.728654 304.37486,251.980341 L304.37486,251.980341 Z" id="Stroke-19" stroke="#29235C" fill="#0a1e3d"></path>
            <path d="M221.087403,355.195123 C215.710819,350.450809 219.822324,349.818233 219.189785,348.236795 C218.557245,346.655357 221.719942,341.911042 218.557245,336.534152 C215.394549,331.157262 217.924706,331.157262 223.933829,326.729235 C229.942952,322.301207 220.454863,318.189468 220.138594,316.60803 C219.822324,315.026591 220.138594,312.812578 222.352481,309.333414 C224.566369,305.854249 217.608437,301.74251 213.180662,292.570168 C208.752887,283.397826 202.743764,285.61184 192.939405,285.295552 C183.135046,284.979264 189.144169,280.551237 190.092978,276.12321 C190.383946,274.766969 190.647083,272.965394 190.869737,271.039835 C189.574296,270.657759 188.329459,270.230138 187.246552,269.797457 C182.502507,267.899731 172.698148,257.778526 162.57752,261.890266 C157.051657,264.134643 147.11067,268.825821 139.208989,272.626334 C145.855712,286.702399 136.395455,294.212333 130.318017,298.263346 C123.676355,302.691373 121.146198,299.528496 112.290648,298.263346 C103.435098,296.998195 104.383907,322.301207 104.067638,332.106125 C103.751368,341.911042 94.5795487,341.594754 93.6307398,341.594754 C93.1955528,341.594754 90.5565989,342.928223 87.3154677,344.494479 C88.2996988,347.43722 88.8715143,350.29646 88.6792224,352.98111 C88.0466831,361.837164 88.0466831,366.265191 95.0046151,370.060643 C101.962547,373.856095 112.715715,380.814423 114.613332,382.712149 C116.51095,384.609875 117.776029,391.568204 121.571264,394.73108 C125.3665,397.893957 124.733961,402.321984 132.956971,400.424258 C141.179982,398.526532 141.179982,404.21971 145.607757,404.852285 C150.035532,405.48486 153.198228,394.73108 158.891081,395.996231 C164.583935,397.261381 174.704563,404.852285 179.132338,401.056833 C183.560113,397.261381 183.560113,389.037902 193.680741,390.935628 C202.541351,392.598036 217.228913,395.715367 225.411441,396.889427 C226.094583,387.200904 227.847982,379.101409 229.626683,373.539807 C232.15684,365.632616 226.463986,359.939438 221.087403,355.195123 L221.087403,355.195123 Z" id="Stroke-23" stroke="#29235C" fill="#0a1e3d"></path>
        </g>
</svg>