<?xml version="1.0" encoding="UTF-8" standalone="no"?>
<svg width="602px" height="407px"  version="1.1" xmlns="http://www.w3.org/2000/svg" xmlns:xlink="http://www.w3.org/1999/xlink">
    <!-- Generator: Sketch 40.1 (33804) - http://www.bohemiancoding.com/sketch -->
    <title>Carte de france</title>
    <desc>Created with Sketch.</desc>
    <defs></defs>
        <g id="layer0" >

            <path d="M18.0437394,7.26991635 C17.4550726,7.26991635 15.1069543,8.70428519 14.3887663,9.42110611 C13.6705783,10.138654 12.3651788,10.3996466 12.1039534,10.3996466 C11.8434556,10.3996466 10.8647698,9.61739581 10.6035444,9.87766142 C10.342319,10.138654 9.95084464,11.8994454 10.0156053,12.2251409 C10.0810935,12.5515634 10.6690327,13.7903695 9.88535637,14.5071904 C9.10240774,15.2247384 8.51519626,15.6812937 7.86249651,15.6158638 C7.20979677,15.5504339 6.8190501,16.9193728 6.8190501,16.9193728 C6.8190501,16.9193728 6.88381072,17.3759281 6.88381072,17.5714908 C6.88381072,17.7670535 6.55782467,19.2021494 8.44970799,20.7019481 C10.342319,22.2010199 9.55864268,22.2010199 9.55864268,22.2010199 C9.55864268,22.2010199 9.49388205,22.9832707 10.4078072,23.3096932 C11.3217324,23.6353887 10.5380561,24.6786321 10.4725679,25.2006173 C10.4078072,25.7218755 10.342319,27.1562444 11.060507,27.6127997 C11.778695,28.069355 12.7566531,28.8516058 12.7566531,29.0478955 C12.7566531,29.2427312 12.3004182,30.2212718 14.3232781,30.5469673 C16.3461379,30.8726628 16.5426027,31.4593509 16.6728516,31.6549136 C16.8031005,31.8512033 18.3042372,33.6112677 19.4793878,33.7421275 C20.6530831,33.8722603 23.6553564,35.4374889 24.1778072,35.4374889 C24.6995304,35.4374889 25.9394417,35.1764963 26.3964042,35.5021918 C26.8533668,35.8278873 28.1580387,36.675568 30.5731005,36.2844426 C32.9881623,35.8933172 33.9006322,35.372059 34.8145574,35.3066291 C35.7284826,35.2419262 38.2737933,35.1764963 38.0780561,32.5680242 C37.882319,29.9602792 37.9478072,28.2649177 38.5997793,26.3085637 C39.2524791,24.3529366 40.6233668,23.2442633 38.5997793,22.2010199 C36.5769195,21.1577764 34.8145574,19.3322822 34.1618576,17.6369207 C33.5091579,15.9415593 32.9226741,11.507593 30.3773633,10.2040839 C27.8327803,8.89984789 26.8533668,8.24772987 24.5037933,8.24772987 C22.1542197,8.24772987 20.9143085,8.18229997 20.001111,7.72647166 C19.0871858,7.26991635 18.0437394,7.26991635 18.0437394,7.26991635 L18.0437394,7.26991635 Z" id="Stroke-3" stroke-width="2" fill="#0a1e3d"></path>
            <path d="M15.5658816,110.246767 C14.3878204,110.738945 12.4748353,114.03225 14.3689016,115.526233 C16.2629678,117.019488 17.2605724,118.214675 16.762134,119.21139 C16.2629678,120.207379 16.762134,122.597751 17.2605724,123.095745 C17.7590109,123.594467 19.6530772,126.084438 19.6530772,126.084438 C19.6530772,126.084438 21.1483927,126.582432 21.6468312,127.180025 C22.1459973,127.777618 22.4450604,129.271601 23.6405851,128.873206 C24.8375652,128.47481 25.6350667,129.172729 25.9341298,129.172729 C26.2331929,129.172729 26.0338175,128.574409 26.532256,128.176014 C27.0306945,127.777618 28.0275715,128.275613 28.0275715,128.674008 L28.0275715,129.669996 C28.0275715,129.669996 29.5236146,130.865183 29.5236146,131.563102 C29.5236146,132.260294 29.0251761,133.256282 28.1279868,133.156683 C27.2300699,133.056357 26.6319437,132.758288 26.6319437,132.758288 C26.6319437,132.758288 26.0338175,131.263578 24.1397513,132.758288 C22.245685,134.252271 22.5440205,135.049061 23.0424589,135.746253 C23.5408974,136.443445 23.3422497,138.037027 24.0400636,138.236225 C24.7378775,138.435422 25.0369406,139.829806 25.4349637,139.331812 C25.8344421,138.833818 26.4325683,136.841841 27.8281961,136.941439 C29.2245515,137.041038 27.7285084,137.837829 28.9247608,137.73823 C30.1210132,137.638631 31.1186178,137.539033 31.8164317,137.73823 C32.5142456,137.937428 34.8070626,137.539033 34.8070626,137.937428 C34.8070626,138.335823 35.8039396,140.3278 36.1037303,139.730934 C36.4027934,139.132614 37.200295,137.73823 37.7984212,137.73823 C38.3958198,137.73823 38.4962351,138.136626 38.4962351,138.734219 C38.4962351,139.331812 37.200295,140.228929 37.200295,140.726196 C37.200295,141.22419 36.4027934,142.619301 37.3996704,143.515691 C38.3958198,144.41208 38.6956105,144.113284 39.7921752,142.320504 C40.8887399,140.526998 41.8856168,139.829806 41.8856168,137.937428 C41.8856168,136.04505 40.8887399,133.753549 40.5896768,132.558363 C40.2906137,131.363177 39.0943613,130.268317 38.4962351,128.972804 C37.8973813,127.678019 36.4027934,127.080426 36.4027934,126.382507 C36.4027934,125.685315 37.2992551,124.092461 35.9043549,124.39053 C34.5087272,124.690054 33.5103949,125.450495 33.0126841,123.294943 C32.713621,122.000158 33.8101856,122.69735 35.3062288,122.298955 C36.8008166,121.900559 33.8101856,120.008181 33.5111225,119.908582 C33.2120594,119.808983 33.1116441,117.717407 34.2082088,118.514198 C35.3062288,119.310989 37.3996704,119.310989 37.3996704,118.812995 C37.3996704,118.315001 37.9977966,116.222698 37.1006073,116.222698 C36.2026904,116.222698 33.6450097,114.384117 32.748548,115.281234 C31.8506311,116.177624 31.6519834,117.871531 31.1535449,116.974415 C30.6543787,116.078025 28.7253854,114.03225 27.7285084,113.334331 C26.7316314,112.637139 25.4349637,113.43393 24.3391267,112.039546 C23.242562,110.645162 21.0494326,107.955993 15.5658816,110.246767 L15.5658816,110.246767 Z" id="Stroke-7" stroke-width="2" fill="#0a1e3d"></path>
            <path d="M10.7608618,65.3052211 C10.2544192,64.9678936 9.32594103,63.1118654 7.89029264,64.5462343 C6.45537191,65.9798761 5.86452219,66.1485398 5.86452219,67.3291861 C5.86452219,68.5098323 5.52689379,69.9434741 6.0333364,70.703188 C6.53977901,71.4621748 7.13135637,74.1607948 7.13135637,75.1727772 C7.13135637,76.1847597 7.13135637,78.9684385 7.46825713,79.7274254 C7.80588554,80.4864122 8.64995656,82.8484317 9.32594103,83.3544229 C10.0011978,83.8604142 10.8452689,84.7880648 10.8452689,85.1253923 C10.8452689,85.4627197 9.74724889,88.0777348 12.7022251,86.0537699 C15.6572013,84.0290779 16.248051,84.1977416 16.7544937,83.1014273 C17.2609363,82.004386 18.9490783,81.329731 18.2745491,77.8721242 C17.597837,74.4137904 17.597837,74.8354498 17.3453434,74.0764629 C17.0921221,73.317476 16.6700866,71.6308386 17.7673789,71.2091792 C18.8646712,70.7875199 19.6250628,70.9554566 19.7087422,71.2091792 C19.7931493,71.4621748 20.7216275,72.2211617 21.3124772,72.3054936 C21.9040545,72.3898254 22.9169398,73.992131 25.617967,72.5584892 C28.3197219,71.1248473 30.5987137,70.2815286 31.0207492,70.4501924 C31.4427847,70.6188561 32.6244841,70.028533 33.7225041,70.028533 C34.8197964,70.028533 37.0987882,70.3651335 37.7747727,70.3651335 C38.4493018,70.3651335 37.4364166,69.6912055 35.9170888,69.1008824 C34.3977609,68.5098323 34.6509822,68.2568367 34.2282191,67.4978498 C33.8061836,66.738863 31.6115989,65.2208892 29.3326072,65.2208892 C27.0536154,65.2208892 26.2088167,62.7752649 26.462038,61.9312192 C26.7152594,61.0879005 26.7152594,59.4855949 25.2803386,57.6302937 C23.8446902,55.7742655 23.4233824,55.8585973 22.2409553,56.7862479 C21.0592559,57.7146255 19.4555209,58.8952718 19.4555209,59.7385905 C19.4555209,60.5819092 19.8782841,62.4372104 20.8067622,62.4372104 C21.7352403,62.4372104 22.1572758,64.714171 21.6508332,64.714171 C21.143663,64.714171 19.8782841,64.7992299 19.8782841,65.5582167 C19.8782841,66.3172036 19.539928,67.7508454 18.2745491,68.3411685 C17.007715,68.9314916 14.4755019,69.1852143 14.9819445,68.3411685 C15.4883871,67.4978498 15.9941021,67.1605223 14.2222806,66.738863 C12.4497315,66.3172036 10.7608618,65.3052211 10.7608618,65.3052211 L10.7608618,65.3052211 Z" id="Stroke-11" stroke-width="2" fill="#0a1e3d"></path>
            <path d="M32.5405136,83.1010638 C31.6113079,84.1973781 31.6113079,85.1250288 31.3580866,85.5474151 C31.1048653,85.9690745 30.0075729,85.9690745 30.0075729,86.5593976 C30.0075729,87.1497207 30.0075729,87.4870482 30.09198,88.1617032 C30.1763871,88.8363582 30.1763871,89.8483406 31.6113079,90.1013363 C33.0469562,90.3543319 33.3845847,90.945382 35.2415409,89.7647358 C37.0992248,88.5833625 37.1829042,88.4146988 37.1829042,87.4027163 C37.1829042,86.3907338 35.325948,85.8847426 35.325948,85.2093606 C35.325948,84.5354326 35.325948,83.9451095 34.9039125,83.9451095 C34.481877,83.9451095 32.5405136,83.1010638 32.5405136,83.1010638 L32.5405136,83.1010638 Z" id="Stroke-15" stroke-width="2" fill="#0a1e3d"></path>
            <path d="M42.3023405,66.4276347 C41.4589971,67.0186848 42.1640875,67.8351046 42.1640875,67.8351046 C42.1640875,67.8351046 44.1054509,67.4134452 45.2871503,66.7387903 C46.4695774,66.0641353 47.3973278,65.4738122 47.3973278,65.4738122 C47.3973278,65.4738122 47.2379731,63.4629332 46.6471233,63.8002607 C46.0562736,64.1375882 42.3023405,66.4276347 42.3023405,66.4276347 L42.3023405,66.4276347 Z" id="Stroke-19" stroke-width="2" fill="#0a1e3d"></path>
            <path d="M13.6029071,90.5137627 C13.0695415,91.022662 12.4866959,91.2894706 12.6329531,91.5809971 C12.7777549,91.8717967 12.6082131,92.4301318 13.2630958,92.357432 C13.9194337,92.2847321 14.2097651,92.5508137 14.2832575,91.677688 C14.3560222,90.8045623 14.4527993,90.2469541 14.112988,90.2956631 C13.7731766,90.343645 13.6029071,90.5137627 13.6029071,90.5137627 L13.6029071,90.5137627 Z" id="Stroke-23" stroke-width="2" fill="#0a1e3d"></path>
            <path d="M17.9599144,89.7874908 C17.6928678,89.7874908 16.5519166,89.8601907 16.5279042,90.0542994 C16.5031642,90.2484081 15.8475539,90.2723991 16.0418358,90.8547252 C16.2361176,91.4370513 16.28487,91.8492597 16.9157403,91.679142 C17.5473383,91.5097512 18.2757134,90.8060163 18.2757134,90.2723991 C18.2757134,89.7387819 17.9599144,89.7874908 17.9599144,89.7874908 L17.9599144,89.7874908 Z" id="Stroke-27" stroke-width="2" fill="#0a1e3d"></path>
            <path d="M18.9866977,214.440468 C18.7058258,214.609859 18.0865978,215.283787 18.0865978,216.183084 C18.0865978,217.083109 17.4680975,217.533121 17.2425268,217.815197 C17.0176837,218.095091 14.5407719,219.726477 14.3166565,221.131766 C14.0910858,222.537055 14.3166565,225.348359 14.5414995,227.203661 C14.7663426,229.059689 14.9911856,229.678365 15.103971,229.902281 C15.2167563,230.12765 15.1607275,231.25159 15.6664425,231.420981 C16.1728851,231.589645 17.0737126,233.220304 17.5241263,233.502379 C17.9738125,233.782274 18.761127,234.119601 18.7058258,235.356953 C18.6497969,236.593578 17.6361841,238.280216 17.3545845,238.506313 C17.0737126,238.730228 16.7353565,238.786207 16.7353565,239.517568 C16.7353565,240.248929 17.1297414,241.87886 16.7353565,242.216915 C16.3424269,242.554242 15.3848429,244.859556 14.9911856,245.646896 C14.5975284,246.434963 13.1909859,247.670861 13.4158289,247.783546 C13.640672,247.89623 14.7663426,248.963465 15.3848429,248.963465 C16.0040709,248.963465 16.6232988,248.851507 17.0176837,248.851507 C17.411341,248.851507 18.2561397,248.795528 18.9866977,248.290264 C19.718711,247.783546 20.4499967,247.276827 20.7883527,247.276827 C21.1252535,247.276827 22.1388664,247.72684 23.6581942,247.502924 C25.177522,247.276827 26.0215931,247.952209 26.0215931,247.952209 C26.0215931,247.952209 27.2040201,248.514179 27.5976774,248.514179 C27.9913347,248.514179 28.7226203,248.907486 29.8482909,247.783546 C30.9739615,246.658151 31.7059748,247.502924 31.7627313,246.658151 C31.8180325,245.814833 32.6068023,246.490215 32.8309177,245.477505 C33.0564884,244.46625 33.6189599,243.397561 33.6757164,242.948276 C33.7324729,242.498264 34.6325728,241.654945 34.6886016,241.035542 C34.7446305,240.416866 34.5758163,239.180241 34.8581435,239.068283 C35.1390154,238.956325 35.7014868,238.449607 35.870301,238.449607 C36.0391153,238.449607 37.4463854,236.424915 37.6712284,235.695008 C37.8960715,234.96292 38.5152995,233.83898 39.0777709,233.220304 C39.64097,232.602354 39.8097842,232.938955 39.8658131,232.715039 C39.9218419,232.488943 40.0913838,231.139633 40.7106118,230.91499 C41.3298397,230.690347 41.3298397,230.12765 41.3298397,229.566407 C41.3298397,229.002256 40.9914837,228.496992 40.879426,227.710379 C40.7666406,226.923039 40.3722557,225.573002 39.9793261,225.236402 C39.5849412,224.898347 39.5289123,224.449062 39.0777709,224.842368 C38.6280848,225.236402 38.572056,226.417775 38.3464853,225.741666 C38.1216422,225.067738 37.952828,224.280398 36.264686,223.099025 C34.5758163,221.917652 33.1132449,221.693736 31.8740614,220.175762 C30.6370607,218.658515 30.1298905,217.927155 29.567419,217.5891 C29.0049475,217.251046 29.2297906,217.364457 28.3857196,217.195067 C27.5416485,217.02713 25.5151504,216.689802 24.0518515,216.015147 C22.5892801,215.339765 21.1252535,214.102413 20.5060255,214.102413 C19.8875252,214.102413 18.9866977,214.440468 18.9866977,214.440468 L18.9866977,214.440468 Z" id="Stroke-31" stroke-width="2" fill="#0a1e3d"></path>
            <path d="M20.679715,161.33756 C20.2533136,161.44661 18.9202635,162.601084 18.8103887,162.766113 C18.6997863,162.930414 17.7101858,164.304442 17.4904363,164.304442 C17.2699591,164.304442 17.5828475,166.381478 15.4552064,166.062326 C14.3557311,165.897297 14.4656059,168.590101 14.4656059,168.590101 C14.4656059,168.590101 16.4455346,168.645353 16.1159103,169.08446 C15.7855583,169.524294 14.6860831,170.457761 14.739929,170.842344 C14.7952302,171.227653 14.739929,172.326148 16.2803586,171.996818 C17.8200606,171.66676 17.4351351,173.040061 18.370162,173.040061 C19.305189,173.040061 21.1199417,173.590399 20.5152666,174.029507 C19.909864,174.469341 20.1296135,175.128729 20.1296135,175.897167 C20.1296135,176.667059 20.7903174,180.017797 20.4599654,180.238077 C20.1296135,180.458358 19.5249385,181.776407 19.6348133,181.995961 C19.7454157,182.216241 22.0549686,184.029377 23.2097451,185.566979 C24.3645216,187.106763 25.3133738,187.757427 24.4882216,188.636369 C23.6637971,189.516037 23.5219058,189.652713 23.1151509,189.577105 C22.656733,189.491319 20.9991522,189.433887 20.9991522,188.554945 C20.9991522,187.675276 21.3396912,186.996259 20.4599654,186.775979 C19.579512,186.556425 16.9396072,186.336871 16.9396072,186.775979 C16.9396072,187.215813 17.1600843,187.984978 17.3805615,188.205985 C17.5995834,188.424812 18.5899115,189.853365 18.7550875,189.853365 C18.9202635,189.853365 19.4587226,190.117265 19.4587226,190.501848 C19.4587226,190.885703 19.7759769,191.567628 19.5009261,191.678132 C19.226603,191.788636 17.5450098,192.490917 17.930663,193.040528 C18.3155885,193.590139 18.535338,194.524333 19.305189,194.02852 C20.0750399,193.534887 20.679715,193.149578 20.7903174,193.369859 C20.9001921,193.590139 20.4599654,194.524333 20.8448909,195.238973 C21.2298164,195.952886 22.6050701,195.238973 22.7695184,195.622101 C22.9346944,196.006684 23.0991427,196.831827 23.7591189,196.885625 C24.4198228,196.940877 25.4086956,196.996129 25.5745992,196.940877 C25.7397752,196.885625 25.7943488,195.238973 26.289149,195.127742 C26.7839493,195.018692 27.4439255,194.13975 27.4439255,194.962713 C27.4439255,195.787857 27.2794772,197.270935 27.8841522,196.831827 C28.4880996,196.391266 28.0486005,195.732605 28.9836275,195.677353 C29.9179268,195.622101 30.8536814,195.183721 30.5786306,194.688635 C30.3035799,194.193548 27.7735498,192.764995 27.9940269,191.777004 C28.2137765,190.786831 27.1688748,188.864646 28.3236512,188.864646 C29.4784277,188.864646 31.2931804,189.578559 31.2386068,189.084927 C31.1833056,188.589841 29.5330013,187.656374 30.7983802,186.336871 C32.063759,185.018822 32.6131328,184.799268 31.0181297,182.820377 C29.4238542,180.842213 30.2482787,178.919301 31.0181297,178.315892 C31.7887083,177.710302 34.0982613,175.953146 34.0982613,174.908448 C34.0982613,173.864478 34.812811,171.556983 33.6580346,170.952847 C32.5039857,170.347984 30.9628285,169.359266 29.3685529,169.029935 C27.7735498,168.699878 27.1688748,167.601382 26.9491252,168.205518 C26.7293757,168.809655 26.2338478,169.743848 25.7943488,169.469043 C25.3541221,169.194237 23.8697213,169.304014 23.7591189,168.260043 C23.6499718,167.2168 22.6596436,166.831491 23.2643186,166.831491 C23.8697213,166.831491 24.0341696,165.677743 22.9346944,165.677743 C21.8344914,165.677743 22.0549686,164.908578 21.2298164,164.523996 C20.4046642,164.139414 20.0197387,163.535278 20.1849147,163.260472 C20.3500907,162.985666 22.8240919,160.787949 20.679715,161.33756 L20.679715,161.33756 Z" id="Stroke-35" stroke-width="2" fill="#0a1e3d"></path>
            <path d="M39.7768946,172.22306 C39.6590157,172.287763 38.3274209,173.823184 38.1767979,173.852991 C38.0254472,173.883525 36.5752459,173.943139 36.5752459,174.547275 C36.5752459,175.150684 36.4246229,175.150684 36.9987367,175.211025 C37.5728505,175.271366 38.6293946,175.96565 38.7203505,176.297162 C38.8105788,176.630127 39.0223242,178.047775 39.4152538,178.078309 C39.8074558,178.108116 40.1705518,177.746798 40.2003854,177.29315 C40.2309466,176.840957 40.743938,176.17648 40.9251222,176.085605 C41.1063064,175.996184 41.499236,174.969662 41.3784466,174.215037 C41.2576571,173.460412 40.5023591,171.831207 39.7768946,172.22306 L39.7768946,172.22306 Z" id="Stroke-39" stroke-width="2" fill="#0a1e3d"></path>
            <path d="M11.0340934,375.819321 C11.439393,376.933811 12.4537335,378.85745 13.2643328,379.870159 C14.074932,380.883596 16.4063144,383.718891 18.3323971,385.339372 C20.2577522,386.958398 22.284978,389.086324 23.5016045,389.895474 C24.718231,390.706078 25.8329868,391.516682 27.556056,392.325831 C29.2791251,393.136435 31.3063508,394.148418 32.1176777,395.060801 C32.9282769,395.972458 34.6513461,397.795044 35.6649589,397.99715 C36.6792995,398.200709 39.2129678,399.415525 39.8212811,399.415525 C40.4288667,399.415525 41.1383229,399.214146 41.0371799,398.301762 C40.9360369,397.390106 39.8212811,395.769625 38.7057976,395.365414 C37.5910417,394.960475 35.5630883,392.934329 35.0566457,392.325831 C34.5494754,391.718787 30.6980376,389.389483 29.8874383,388.984544 C29.0761114,388.578879 25.1235306,383.211446 23.5016045,382.299789 C21.8796783,381.38886 17.7240839,378.554291 17.0146276,377.945793 C16.3051714,377.338749 14.8855312,376.628471 14.176075,376.427092 C13.4666187,376.22426 13.1631898,375.718268 11.9465633,374.907665 C10.7306644,374.098515 9.00686763,374.199568 9.91933751,374.806612 C10.8310797,375.413656 11.0340934,375.819321 11.0340934,375.819321 L11.0340934,375.819321 Z" id="Stroke-43" stroke-width="2" fill="#0a1e3d"></path>
            <path d="M43.0644057,380.781888 C41.765555,381.332954 40.3277237,382.09921 40.7330233,383.008686 C41.1390506,383.92107 42.2538064,384.528114 43.0644057,384.832726 C43.8750049,385.135158 44.5851888,386.453207 45.1927744,386.553533 C45.8018153,386.655313 46.7135575,386.655313 46.2063873,385.43977 C45.6999447,384.224228 44.7874748,383.008686 44.5851888,382.503422 C44.3821752,381.997431 44.0147132,380.37695 43.0644057,380.781888 L43.0644057,380.781888 Z" id="Stroke-47" stroke-width="2" fill="#0a1e3d"></path>
            <path d="M50.0641557,388.738455 C49.7941985,388.768989 49.4645742,388.918751 49.7941985,389.458911 C50.1245504,389.997617 50.2446122,390.657732 50.8740273,391.137552 C51.5041699,391.616644 51.654793,392.187338 52.1641462,391.437802 C52.674227,390.688266 53.3647644,390.478164 52.8539559,389.87839 C52.3446027,389.278615 51.4743364,388.918751 50.934422,388.768989 C50.39378,388.619227 50.0641557,388.738455 50.0641557,388.738455 L50.0641557,388.738455 Z" id="Stroke-51" stroke-width="2" fill="#0a1e3d"></path>
            <path d="M37.0805243,377.876074 C36.8294859,378.042557 35.9097395,378.292644 36.2444574,378.627791 C36.5791752,378.960756 36.662127,379.7132 36.4118163,380.131951 C36.1607779,380.549249 34.4893718,381.466721 35.1573521,381.801141 C35.8260601,382.134833 36.8294859,382.134833 37.1642037,381.383117 C37.4981939,380.632127 37.999543,380.381312 38.0824948,379.54599 C38.1669019,378.710669 38.3335331,378.292644 38.0824948,377.958952 C37.8329117,377.624532 37.0805243,377.876074 37.0805243,377.876074 L37.0805243,377.876074 Z" id="Stroke-55" stroke-width="2" fill="#0a1e3d"></path>
            <path d="M45.6896848,400.92492 C45.0209769,401.176461 44.8536179,401.927451 45.1046563,402.261144 C45.354967,402.59629 46.2747134,403.765304 46.692383,403.095738 C47.1107803,402.427627 47.361091,401.759515 47.1107803,401.342944 C46.8597419,400.92492 45.6896848,400.92492 45.6896848,400.92492 L45.6896848,400.92492 Z" id="Stroke-59" stroke-width="2" fill="#0a1e3d"></path>
            <path d="M48.8632464,298.093615 C48.3291531,298.474562 46.5740675,301.217529 46.2684556,301.597749 C45.9628437,301.980151 45.4294781,302.664984 45.6579594,302.816926 C45.8864407,302.969596 46.1156497,302.816926 46.6497429,303.427606 C47.1831084,304.037558 47.792877,303.124447 48.2512949,302.81838 C48.7089851,302.513768 48.7082575,303.581729 49.3951566,303.351998 C50.0820558,303.124447 51.7600108,303.048112 51.8364138,302.591557 C51.9128167,302.135002 51.3794512,301.90527 51.2266452,301.447988 C51.0745669,300.990705 50.2355894,300.608304 50.8460856,300.152475 C51.4565818,299.695193 52.2962869,299.085241 51.9914027,298.476016 C51.6865184,297.866064 50.7711379,296.79883 49.7793545,297.408782 C48.7868434,298.01728 48.8632464,298.093615 48.8632464,298.093615 L48.8632464,298.093615 Z" id="Stroke-63" stroke-width="2" fill="#0a1e3d"></path>
            <path d="M45.3363393,290.278376 C44.8968402,289.948319 44.1255339,289.617534 43.5754325,289.561555 C43.025331,289.506304 41.813798,289.342002 41.2083954,288.957419 C40.6029927,288.570656 40.6590216,286.612848 40.6037204,285.679381 C40.5491468,284.744461 40.8263805,281.97096 41.2666072,281.420622 C41.7068339,280.871738 43.2487188,279.882292 43.7449743,278.892847 C44.2405022,277.903401 45.0671097,275.42797 45.1231386,274.767855 C45.1784398,274.108467 45.2890422,272.898014 44.7935143,272.567956 C44.2979864,272.237172 40.6109968,271.300797 40.2253437,270.639955 C39.8404182,269.980567 39.0145384,269.320452 38.6841864,269.155423 C38.3545621,268.991121 37.4733811,269.484027 37.1430292,269.209221 C36.8126772,268.933689 35.6579008,267.449157 36.3731782,267.175078 C36.6984366,267.049307 38.7409429,265.525518 38.7955165,265.361216 C38.8515453,265.194733 38.9061189,264.094784 38.6317958,264.315064 C38.3560174,264.535345 36.8694337,265.30451 36.5390818,265.414287 C36.2087299,265.524064 34.8873221,266.403732 34.8320209,267.173624 C34.7759921,267.942062 35.27152,268.658156 35.4366959,269.264473 C35.6011443,269.870063 35.9307685,271.354595 35.876195,271.683925 C35.8208938,272.013983 35.4898142,272.783875 35.4898142,273.334213 C35.4898142,273.883824 35.8194385,275.204781 35.9838868,276.029198 C36.1490628,276.854342 36.5892895,278.008816 37.1393909,278.229824 C37.6894924,278.44865 37.9638155,279.683094 38.2941674,280.276325 C38.625247,280.870284 39.2124585,286.46454 39.1018561,287.178453 C38.9912536,287.894547 38.7314835,289.560828 38.6754547,290.000663 C38.6208811,290.440497 38.0940644,291.987551 37.5985365,292.207831 C37.1030086,292.427385 34.8560333,294.006427 34.5053072,294.590207 C33.9755799,295.470603 33.9937711,296.323372 34.7097762,296.269574 C35.4250536,296.213595 36.582013,295.775215 36.5812854,296.598905 C36.5812854,297.424049 36.2494781,299.514897 36.745006,299.458919 C37.2405339,299.404394 38.121715,299.185567 38.1755609,299.735905 C38.2315897,300.285516 38.2308621,301.221891 39.2219179,300.230264 C40.2129737,299.240092 43.2974711,296.272482 44.0127486,295.888627 C44.7287536,295.50259 46.050889,293.413196 45.9963155,292.862857 C45.9410143,292.313246 45.7765659,290.608434 45.3363393,290.278376 L45.3363393,290.278376 Z" id="Path" stroke-width="2" fill="#0a1e3d"></path>
            <path d="M8.69303329,285.723946 C8.28700602,285.296471 6.51445688,284.528033 6.02329486,284.25032 C5.53213285,283.972606 4.2289163,283.86501 4.12195212,283.524048 C4.01498795,283.181631 3.60968833,282.967893 3.11852632,282.989703 C2.62663665,283.010786 1.43111192,282.134753 1.1960818,282.027884 C0.96105168,281.921015 0.341823716,281.75017 0.213757768,282.410285 C0.084236525,283.074035 -0.0649311985,283.841746 0.212302473,284.589101 C0.489536145,285.336456 1.12986588,286.553452 1.36489601,287.321163 C1.59919848,288.088874 1.94119277,289.178645 2.11146227,289.478896 C2.28173177,289.776238 3.09451395,289.776965 3.26478345,290.140465 C3.4357806,290.50251 3.0508551,291.121913 3.3499182,291.548662 C3.64825365,291.97541 5.29346449,292.530837 5.93379423,293.001932 C6.57485162,293.470847 8.94698224,293.301456 9.63024318,293.493384 C10.3135041,293.685311 12.4506046,293.153875 13.1549673,293.196768 C13.8600577,293.239661 16.0175323,293.645326 16.7226227,293.539185 C17.4277131,293.433043 18.8378938,293.156783 19.2220916,292.984484 C19.6070171,292.815094 20.5042064,292.218228 19.0518221,292.173881 C17.5987102,292.130988 17.0442429,291.213515 16.6382156,291.128456 C16.2321883,291.041216 14.3948786,290.507599 14.1605761,290.314944 C13.925546,290.123744 11.6829366,288.030714 11.277637,287.773356 C10.8716097,287.517453 8.69303329,285.723946 8.69303329,285.723946 L8.69303329,285.723946 Z" id="Stroke-71" stroke-width="2" fill="#0a1e3d"></path>
            <path d="M20.3371386,295.209028 C20.0177013,295.273004 18.8418231,295.528181 18.478727,295.827704 C18.1156309,296.126501 17.1966122,296.916022 17.0263427,297.427829 C16.8553456,297.94109 16.5344531,298.901456 17.0474445,299.136276 C17.560436,299.371097 17.6885019,299.413263 18.3928646,299.34856 C19.097955,299.285311 19.5680152,299.115193 20.0380755,299.669894 C20.5081357,300.223867 20.2520038,300.351819 20.5081357,300.715318 C20.7642676,301.077363 21.341292,301.41978 22.3672749,300.394712 C23.3925301,299.371097 26.020065,298.176638 26.447194,297.983256 C26.8750507,297.791328 27.6652758,297.471449 27.8144436,297.299877 C27.9643389,297.129759 28.327435,297.214818 27.6652758,296.894939 C27.0031167,296.574332 26.4260923,296.340966 26.0629962,296.44638 C25.6999001,296.553976 24.2475159,296.466736 24.0117581,296.190477 C23.776728,295.914217 23.6704914,295.336253 23.4776649,295.144325 C23.2855659,294.951671 21.5122892,295.016374 21.3631214,294.951671 C21.2132261,294.889149 20.3371386,295.209028 20.3371386,295.209028 L20.3371386,295.209028 Z" id="Stroke-75" stroke-width="2" fill="#0a1e3d"></path>
            <path d="M18.9085484,266.044595 C18.5971153,266.176182 17.8083454,266.767232 17.7181172,267.13582 C17.6278889,267.505136 17.0486815,268.827547 17.0515921,269.159058 C17.053775,269.489116 17.2837116,270.128148 17.2677034,270.506187 C17.2509675,270.882773 17.2509675,271.736269 17.1032551,271.752263 C16.9555426,271.768984 15.3467142,272.374574 15.1167776,272.541057 C14.8875686,272.703905 14.5426638,272.589766 14.7391286,273.096484 C14.936321,273.60611 14.9850734,273.753691 14.8875686,273.982696 C14.7886086,274.213155 14.5914161,274.623182 15.0185452,274.917617 C15.4449466,275.212778 16.1187481,275.016488 16.3319488,275.262941 C16.5451495,275.50794 16.4134453,275.557376 16.7750861,275.721677 C17.1359992,275.885252 17.5951447,276.362163 17.7268489,276.738749 C17.8585531,277.116061 18.0557456,277.345793 17.9727938,277.672215 C17.8912972,278.000092 17.4809041,278.215284 18.0062655,278.36141 C18.5308993,278.509718 18.7608359,279.050605 19.0235166,278.836868 C19.286925,278.624584 19.2207091,277.804529 19.6965905,278.000092 C20.1724719,278.198563 20.4191444,278.279986 20.8288099,278.460282 C21.2399307,278.640578 21.5513638,278.42684 21.7645645,278.180388 C21.9784929,277.935389 21.8802605,277.361787 21.3709073,277.443938 C20.8622817,277.526089 20.6978334,277.311624 20.649081,277.000468 C20.599601,276.689313 20.4351527,276.262564 20.6323451,276.032833 C20.8288099,275.803101 20.8288099,275.622078 20.8462735,275.18079 C20.8622817,274.737321 20.97725,274.458153 21.1737148,274.081568 C21.3709073,273.703528 21.255939,273.555948 21.3709073,273.146647 C21.4858756,272.73662 21.6008438,272.391295 21.961757,272.064146 C22.3233977,271.736269 22.3401336,271.654845 22.717055,271.03108 C23.094704,270.407315 23.5043695,271.095783 23.0786958,270.112881 C22.6515667,269.128524 22.5693426,269.062367 22.1756853,268.849357 C21.7813004,268.635619 21.5353556,268.488765 21.5186197,268.046023 C21.5026114,267.604008 21.4858756,267.718146 21.2726749,267.282674 C21.0594742,266.848656 21.1577066,266.898092 20.9445059,266.585482 C20.7313052,266.274327 20.5013686,266.061316 20.0909754,265.865753 C19.6805823,265.667282 18.9085484,266.044595 18.9085484,266.044595 L18.9085484,266.044595 Z" id="Stroke-79" stroke-width="2" fill="#0a1e3d"></path>
            <path d="M45.4562555,340.864414 C44.4390044,340.679029 43.7906706,339.386425 41.7561684,341.049799 C39.7216661,342.712445 38.7124192,342.476171 38.8011921,343.102844 C38.8892375,343.72879 39.8373621,345.863986 40.658876,347.152955 C41.4789347,348.443378 42.6817359,349.736709 43.5141646,349.551324 C44.3458656,349.366666 43.5134369,348.350322 44.9934718,348.443378 C46.4735067,348.53498 48.2038523,348.933375 48.1711081,349.473535 C48.1390916,350.012968 46.9093675,351.030767 47.709052,351.539666 C48.5087365,352.046384 50.1735938,352.785015 50.8212001,352.693413 C51.4680786,352.601811 52.8557023,352.601811 52.7632911,351.58474 C52.6708798,350.568396 53.0412524,349.458268 52.2088237,349.088953 C51.3756674,348.720364 50.2660051,348.71891 49.7108101,347.888678 C49.1563427,347.057718 48.8783814,347.057718 48.8783814,345.855262 C48.8783814,344.653532 48.8783814,343.453257 48.2307752,342.436186 C47.5838966,341.419841 45.4562555,340.864414 45.4562555,340.864414 L45.4562555,340.864414 Z" id="Stroke-83" stroke-width="2" fill="#0a1e3d"></path>
            <path d="M31.1189816,339.663848 C30.1017305,339.570065 28.344462,339.201477 28.9920682,340.771794 C29.6389467,342.343566 30.1017305,342.251237 30.8417479,342.897539 C31.5817654,343.545295 32.3334252,344.874249 32.9752102,345.549631 C33.6162676,346.224286 34.4486963,346.408217 34.7266576,345.393327 C35.0038912,344.376255 36.3915149,342.897539 36.5763373,342.06658 C36.7611598,341.234166 37.2239436,339.75545 36.5763373,339.478463 C35.9287311,339.20075 35.4775897,339.546074 34.4545174,339.604234 C33.4314451,339.663848 31.1189816,339.663848 31.1189816,339.663848 L31.1189816,339.663848 Z" id="Stroke-87" stroke-width="2" fill="#0a1e3d"></path>
            <path d="M23.2569694,332.640239 C23.072147,333.932843 22.7949133,335.689999 22.9797357,336.42863 C23.1645582,337.167988 23.7081108,339.146879 24.40738,339.266107 C25.1066492,339.386062 25.8473943,339.200677 26.1239003,338.184333 C26.4018616,337.167988 27.3099656,336.482428 26.8559136,335.807773 C26.4018616,335.135299 26.2170392,335.780874 26.0314891,334.580599 C25.8466666,333.37887 25.1990604,332.82417 24.6438654,332.361798 C24.0893981,331.899427 23.2569694,332.640239 23.2569694,332.640239 L23.2569694,332.640239 Z" id="Stroke-91" stroke-width="2" fill="#0a1e3d"></path>
            <path d="M15.2095526,330.052414 C15.1091373,330.034966 15.0145431,330.02188 14.9272254,330.010248 C14.0496826,329.904833 13.8051931,330.103304 13.6371065,330.607114 C13.4522841,331.161087 13.4522841,331.899718 13.6371065,332.362089 C13.821929,332.825188 14.2847127,333.286105 15.1171414,333.286105 C15.9495701,333.286105 16.7827264,333.286105 16.9675488,332.916062 C17.1516436,332.547474 17.2506037,331.232333 17.0628706,330.872469 C16.87441,330.514058 15.2095526,330.052414 15.2095526,330.052414 L15.2095526,330.052414 Z" id="Stroke-95" stroke-width="2" fill="#0a1e3d"></path>
            <path d="M17.0595962,336.42863 C16.41199,335.966259 15.3947389,336.057861 15.4871501,337.074932 C15.5795614,338.091277 16.1347563,340.772449 16.41199,341.326422 C16.6899513,341.881122 17.5216523,342.989068 18.0768473,341.881122 C18.6320423,340.772449 19.8486688,339.644873 19.8486688,339.644873 C19.8486688,339.644873 19.6492934,338.184333 19.1872373,337.723415 C18.7251812,337.260317 17.0595962,336.42863 17.0595962,336.42863 L17.0595962,336.42863 Z" id="Stroke-99" stroke-width="2"></path>
            <path d="M9.28955866,326.078056 C8.64340774,326.400844 8.0874851,330.237217 7.99507387,330.606532 C7.901935,330.975848 7.90266265,332.639948 8.54954122,331.992919 C9.19787508,331.346617 9.4743811,331.899863 9.93716487,332.085248 C10.3999486,332.269906 10.7703212,331.530548 10.7703212,330.790463 C10.7703212,330.052559 10.2151262,325.615685 9.28955866,326.078056 L9.28955866,326.078056 Z" id="Stroke-103" stroke-width="2" fill="#0a1e3d"></path>
            <path d="M7.71740361,320.071155 C7.0697974,320.163484 6.51533006,320.995898 6.51533006,322.1969 C6.51533006,323.398629 7.71740361,323.859546 8.6422435,323.491685 C9.56708339,323.120915 10.6774734,322.1969 10.4002397,321.456815 C10.1222784,320.718184 7.71740361,320.071155 7.71740361,320.071155 L7.71740361,320.071155 Z" id="Stroke-107" stroke-width="2" fill="#0a1e3d"></path>
            <path d="M39.8137863,324.323081 C39.1661801,324.413956 37.8716953,324.413956 38.148929,325.431754 C38.4261627,326.448826 39.711188,327.851206 40.3638878,327.795228 C41.0165875,327.742157 42.2193887,328.019143 42.6814448,327.463716 C43.143501,326.909743 44.2538909,326.909743 43.6062847,325.800343 C42.9586785,324.692396 41.1089987,324.323081 40.8310374,324.413956 C40.5538037,324.507012 39.8137863,324.323081 39.8137863,324.323081 L39.8137863,324.323081 Z" id="Stroke-111" stroke-width="2" fill="#0a1e3d"></path>
            <path d="M46.288757,329.682589 C45.4563283,329.86652 45.0859558,330.514276 44.9935445,330.790536 C44.9935445,330.790536 44.9011333,332.269979 45.6411508,332.085321 C46.3811682,331.899936 47.399147,332.362307 47.6763806,331.623676 C47.9536143,330.882865 48.0460255,330.422674 47.9536143,330.052632 C47.8612031,329.682589 46.288757,329.682589 46.288757,329.682589 L46.288757,329.682589 Z" id="Stroke-115" stroke-width="2" fill="#0a1e3d"></path>
            <path d="M46.0112322,326.171112 C45.2712148,326.818141 44.4387861,327.649101 45.363626,327.834485 C46.2884659,328.019143 47.3064447,328.296857 47.4912671,327.649101 C47.6760896,327.002799 48.1381457,326.632756 47.860912,326.171112 C47.5836783,325.708741 46.0112322,326.171112 46.0112322,326.171112 L46.0112322,326.171112 Z" id="Stroke-119" stroke-width="2" fill="#0a1e3d"></path>
            <path d="M40.7386262,329.775573 C40.2765701,329.959503 40.0917476,329.866447 39.9993364,330.699588 C39.9061975,331.530548 39.9993364,331.623604 40.5538037,331.992919 C41.1089987,332.362235 41.8490162,333.28625 42.2186611,332.362235 C42.588306,331.438219 42.8662673,331.345163 42.6814448,330.790463 C42.4966224,330.237217 40.7386262,329.775573 40.7386262,329.775573 L40.7386262,329.775573 Z" id="Stroke-123" stroke-width="2" fill="#0a1e3d"></path>
            <path d="M49.5258421,332.825551 C48.4161798,333.101811 47.7685736,333.841896 47.6761623,334.211211 C47.5837511,334.580526 46.8437337,335.042898 47.5837511,335.412213 C48.3237685,335.780802 48.8782359,336.243173 49.5258421,335.597598 C50.1734483,334.949842 50.4514096,334.857513 50.5438209,334.302813 C50.6362321,333.749567 49.5258421,332.825551 49.5258421,332.825551 L49.5258421,332.825551 Z" id="Stroke-127" stroke-width="2" fill="#0a1e3d"></path>
            <path d="M43.051308,334.48827 C42.4037018,334.395214 41.2016282,334.48827 40.8312557,334.48827 C40.4608832,334.48827 40.2767884,336.243246 40.8312557,336.521686 C41.3864507,336.797946 42.5885243,337.63036 43.051308,337.260317 C43.5140918,336.891002 43.051308,334.48827 43.051308,334.48827 L43.051308,334.48827 Z" id="Stroke-131" stroke-width="2" fill="#0a1e3d"></path>
            <path d="M26.7719431,323.306373 C26.2429434,323.112991 25.1070858,324.413592 25.1070858,324.413592 C25.1070858,324.413592 24.3670683,325.893035 25.1070858,325.893035 C25.8471032,325.893035 26.8927326,326.332869 27.1095715,325.559342 C27.3271381,324.784362 27.7891942,323.675688 26.7719431,323.306373 L26.7719431,323.306373 Z" id="Stroke-135" stroke-width="2" fill="#0a1e3d"></path>
            <path d="M28.4368732,326.632538 C28.0665006,326.725594 27.4196221,327.834267 27.5120333,328.295185 C27.6037169,328.75901 27.3272108,329.775354 28.344462,329.404585 C29.3617131,329.035997 29.5465355,329.128325 29.6389467,328.295185 C29.7320856,327.464225 29.731358,326.817923 29.4533966,326.632538 C29.1768906,326.448607 28.4368732,326.632538 28.4368732,326.632538 L28.4368732,326.632538 Z" id="Stroke-139" stroke-width="2" fill="#0a1e3d"></path>
            <path d="M30.7494822,322.565924 C29.8246424,322.936694 29.3618586,323.767654 29.546681,324.230025 C29.7322311,324.692396 29.7322311,325.154768 30.2866985,325.247096 C30.8418935,325.339425 31.2115384,325.523356 31.5819109,324.877781 C31.9515558,324.230025 32.3219283,324.230025 32.1363782,323.491394 C31.9515558,322.751309 30.7494822,322.565924 30.7494822,322.565924 L30.7494822,322.565924 Z" id="Stroke-143" stroke-width="2" fill="#0a1e3d"></path>
            <path d="M32.3217101,326.263368 C31.6741038,326.263368 30.8416752,327.742084 30.8416752,327.742084 C30.8416752,327.742084 30.8416752,328.759155 31.2120477,328.943086 C31.5816926,329.127744 32.876905,329.7755 33.1541387,329.311675 C33.4313724,328.851484 33.7093337,328.573771 33.8017449,327.834413 C33.8941562,327.095055 33.6161948,326.818068 33.4313724,326.540355 C33.2465499,326.263368 32.3217101,326.263368 32.3217101,326.263368 L32.3217101,326.263368 Z" id="Stroke-147" stroke-width="2" fill="#0a1e3d"></path>
            <path d="M7.39512857,48.0411054 L43.9754203,48.0411054" id="Stroke-149" stroke-width="0.859" stroke-linecap="round" fill="#0a1e3d"></path>
            <path d="M7.39512857,100.467396 L43.9754203,100.467396" id="Stroke-151" stroke-width="0.859" stroke-linecap="round" fill="#0a1e3d"></path>
            <path d="M7.39512857,152.893686 L43.9754203,152.893686" id="Stroke-153" stroke-width="0.859" stroke-linecap="round" fill="#0a1e3d"></path>
            <path d="M7.39512857,205.319612 L43.9754203,205.319612" id="Stroke-155" stroke-width="0.859" stroke-linecap="round" fill="#0a1e3d"></path>
            <path d="M7.39512857,257.746557 L43.9754203,257.746557" id="Stroke-157" stroke-width="0.859" stroke-linecap="round" fill="#0a1e3d"></path>
            <path d="M7.39512857,310.172847 L43.9754203,310.172847" id="Stroke-159" stroke-width="0.859" stroke-linecap="round" fill="#0a1e3d"></path>
            <path d="M7.39512857,362.599864 L43.9754203,362.599864" id="Stroke-161" stroke-width="0.859" stroke-linecap="round" fill="#0a1e3d"></path>
            <path d="M289.958591,49.4485753 C291.171579,49.9334836 294.56751,51.8716627 295.537464,54.295477 C296.507418,56.7185643 298.448054,60.8384671 297.720406,61.8075567 C296.992759,62.7766462 296.022077,63.5036451 296.022077,65.2004606 C296.022077,66.896549 295.537464,69.0775457 296.265111,71.2585424 C296.992759,73.4395392 296.992759,74.4086287 296.992759,76.5896254 C296.992759,78.7706221 297.962713,80.7095282 298.205019,82.4056166 C298.416765,83.8806974 297.160118,82.6135383 295.553472,85.2801703 C297.079349,86.4135616 298.621961,87.3484822 299.478403,87.4342681 C301.297521,87.6160178 304.390023,86.7072692 305.845318,86.16202 C307.300612,85.6167708 307.846348,87.2525183 310.02929,87.6160178 C312.212233,87.9795173 313.121792,86.16202 314.94091,86.16202 C316.760029,86.16202 320.034442,91.432762 322.399297,91.6145118 C324.764151,91.7962615 331.131066,92.7050101 332.768273,92.3415107 C334.405479,91.9780112 335.315039,88.161267 337.134157,89.2517653 C338.953276,90.3422637 340.044747,91.0692626 340.044747,93.7955085 C340.044747,96.5217544 340.954306,97.7940025 342.955337,98.8845008 C343.986413,99.445744 346.657607,100.441732 349.006453,101.2756 C350.194701,100.017165 351.748956,99.5489778 352.778577,96.4614135 C353.991565,92.8264189 350.595635,92.5836013 352.778577,90.6454222 C354.961519,88.7065162 354.719213,87.9795173 353.263918,84.829431 C351.808623,81.6786177 354.476906,81.9214354 356.659848,80.9516188 C358.842791,79.9825293 359.812745,76.832443 362.965641,78.5285315 C366.119265,80.2246199 364.906277,73.1974485 364.906277,71.5006331 C364.906277,70.5315435 365.876231,66.1695501 368.544514,64.7155523 C371.212797,63.2615545 370.485149,57.9304715 370.969763,54.5375676 C371.100012,53.625911 371.321216,52.7506043 371.612275,51.9370926 C369.804799,51.6891859 368.584534,51.617213 369.878292,49.2668256 C371.879322,45.6318311 370.605939,45.6318311 369.150644,43.2690846 C367.695349,40.9063382 370.424027,39.4523404 370.424027,39.4523404 C369.878292,36.362595 366.058143,37.2713436 365.512407,35.8173458 C364.966671,34.363348 364.602848,32.9093502 360.782699,33.0910999 C356.96255,33.2728497 355.507255,36.7260945 354.415784,33.9998486 C353.324312,31.2736027 353.142401,28.0021076 351.14137,27.6386082 C349.14034,27.2751087 342.773425,29.6378551 342.227689,20.5503688 C341.681954,11.4628825 337.134157,12.9168803 335.133127,14.9161273 C333.132096,16.9153743 330.949154,19.2781208 327.856652,16.0066257 C324.764151,12.7351306 322.399297,10.3723842 323.490768,9.10013609 C324.582239,7.82788801 323.67268,0.376149233 321.125914,0.739648686 C317.148593,1.30743483 309.483555,3.6476443 305.845318,4.01114376 C302.20708,4.37464321 298.568843,6.91913938 296.749725,8.37313719 C294.930606,9.82713499 293.475311,10.1906344 293.475311,16.7336246 C293.475311,23.2766147 294.566782,31.2736027 293.111487,33.4545994 C291.656193,35.6355961 292.020016,37.0895939 293.111487,38.9070912 C294.202959,40.7245884 291.292369,40.361089 291.292369,40.361089 C291.292369,40.361089 288.439991,45.3483015 287.324507,46.8568242 C288.434897,48.0614614 289.369197,49.2130277 289.958591,49.4485753 L289.958591,49.4485753 Z" id="Stroke-3" stroke-width="2" fill="#0a1e3d"></path>
            <path d="M265.896528,129.436557 C265.895072,129.28316 265.869605,129.096322 265.825218,128.873133 C265.461394,127.055636 266.734777,126.328637 268.735808,123.96589 C270.736838,121.603144 272.010221,120.149146 272.010221,119.603897 C272.010221,119.058648 269.281543,113.606156 268.553896,111.970408 C267.826249,110.334661 267.644337,110.152911 268.371984,109.547321 C272.252528,106.881416 276.133072,103.73133 280.014343,104.943237 C283.894887,106.155144 285.107875,103.489239 286.805477,101.550333 C287.668466,100.56525 288.340813,99.7670048 288.604949,98.8400812 C288.861081,97.9422375 288.73447,96.9229851 288.018465,95.4922512 C286.56317,92.5842556 289.716066,91.8572567 291.171361,91.8572567 C292.626656,91.8572567 292.868963,91.3723484 294.809598,86.7682644 C295.063547,86.1663093 295.312403,85.681401 295.553982,85.2800976 C297.160627,82.6134656 298.416547,83.8806247 298.205529,82.4062709 C297.962495,80.7101825 296.992541,78.7712764 296.992541,76.5902797 C296.992541,74.409283 296.992541,73.4394665 296.264893,71.2584697 C295.537246,69.077473 296.022587,66.8964763 296.022587,65.2003879 C296.022587,63.5035724 296.992541,62.7773005 297.720188,61.807484 C298.447835,60.8383944 296.5072,56.7184916 295.537246,54.2954043 C294.567292,51.87159 291.171361,49.9334109 289.958373,49.4485026 C289.368978,49.212955 288.434679,48.0613887 287.325017,46.8567515 C287.314102,46.8712915 287.301004,46.8901935 287.290817,46.9040064 C286.199346,48.3580042 282.197285,49.8120021 278.195224,51.2659999 C278.195224,51.2659999 268.91772,53.0834971 264.733747,54.9009944 C260.549774,56.7184916 256.911537,57.9907397 253.2733,60.3534862 C249.635063,62.7162326 248.179768,68.1687244 247.997856,70.3497211 C247.815944,72.5307178 249.998886,71.6219692 252.545653,72.7124676 C255.092419,73.8029659 252.909476,75.2569637 249.453151,76.3474621 C245.996826,77.4379604 239.629911,81.6182041 235.264026,80.3459561 C230.898141,79.073708 219.801518,75.075214 217.618576,74.8934643 C215.435633,74.7117145 214.526074,73.8029659 212.888867,74.7117145 C211.251661,75.6204632 205.612393,69.077473 206.158129,67.078226 C206.703864,65.0789791 209.432542,64.5337299 208.341071,62.3527332 C207.2496,60.1717364 206.521952,59.4447375 203.793275,60.3534862 C201.064597,61.2622348 196.698712,62.3527332 194.51577,60.7169856 C192.332828,59.0812381 187.785031,56.1732425 187.421207,58.5359889 C187.057384,60.8987354 191.423268,62.1709834 190.331797,63.806731 C189.240326,65.4424785 188.330767,67.4417255 189.60415,70.5314708 C190.877533,73.6212162 195.971065,80.7094555 196.152977,82.7087025 C196.334888,84.7079495 195.607241,99.611427 196.152977,101.428924 C196.698712,103.246422 202.519892,107.063166 202.519892,108.153664 C202.519892,109.244163 200.700773,108.517164 196.698712,108.153664 C196.147155,108.103501 195.592688,108.07224 195.043314,108.051157 C196.994865,111.30375 199.368451,115.00054 199.973126,115.241903 C200.882685,115.605403 204.157098,111.970408 205.612393,112.152158 C207.067688,112.333908 210.16019,114.514905 210.16019,114.514905 C210.16019,114.514905 210.785239,114.432754 211.73118,114.405855 C212.768078,114.376048 214.190629,114.411671 215.617545,114.696654 C218.346223,115.241903 217.982399,115.787153 219.073871,117.059401 C220.165342,118.331649 221.802549,115.968902 223.257843,117.24115 C224.713138,118.513399 226.532257,116.150652 229.079023,115.241903 C231.625789,114.333155 231.443877,116.150652 233.081084,115.241903 C234.71829,114.333155 235.809762,112.879157 237.62888,114.514905 C239.447999,116.150652 237.810792,117.4229 239.629911,117.4229 C241.449029,117.4229 240.357558,121.057895 242.358588,120.876145 C244.359619,120.694395 249.635063,116.877651 252.727564,118.149899 C255.820066,119.422147 255.27433,121.966643 255.092419,124.14764 C254.910507,126.328637 256.18389,126.510387 260.731686,128.327884 C264.721377,129.922192 265.910353,130.536506 265.896528,129.436557 L265.896528,129.436557 Z" id="Stroke-8" stroke-width="2" fill="#0a1e3d"></path>
            <path d="M170.685171,157.953162 C171.776642,156.499164 173.231937,158.680161 174.50532,157.589662 C175.778703,156.499164 175.414879,151.228422 178.325469,150.683173 C181.236059,150.137924 188.876357,150.501423 191.059299,148.683926 C193.242241,146.866429 197.06239,144.140183 197.790038,144.685432 C198.517685,145.230681 200.882539,148.138677 202.155922,147.775177 C203.429305,147.411678 205.430336,140.505188 207.613278,139.23294 C209.79622,137.960692 211.979163,136.688444 211.433427,134.689197 C210.887692,132.68995 208.886661,128.873206 209.068573,126.328709 C209.250485,123.784213 211.797251,121.421467 211.615339,119.42222 C211.515651,118.330268 211.63353,116.264864 211.731035,114.405927 C210.785093,114.432826 210.160044,114.514977 210.160044,114.514977 C210.160044,114.514977 207.067542,112.333981 205.612248,112.152231 C204.156953,111.970481 200.882539,115.605476 199.97298,115.241976 C199.368305,114.999886 196.994719,111.303823 195.043169,108.05123 C191.6094,107.924732 188.412118,108.285324 187.784886,107.971987 C187.057238,107.608488 187.784886,104.700492 186.511503,103.791743 C185.23812,102.882995 179.962676,104.882242 178.689293,105.609241 C177.41591,106.33624 175.960615,106.699739 172.140466,104.336993 C168.320317,101.974246 164.500168,108.153737 162.135314,109.789484 C159.770459,111.425232 157.769429,99.9749992 152.857809,96.8852538 C147.946189,93.7955085 143.762216,94.1590079 140.487802,93.7955085 C137.213389,93.432009 136.30383,100.520248 133.211328,99.42975 C130.118827,98.3392516 122.66044,97.6122527 117.74882,99.2480003 C112.8372,100.883748 114.110583,98.5210014 111.745729,99.0662505 C109.380875,99.6114997 101.740577,101.065498 100.285282,103.246494 C98.829987,105.427491 95.5555736,112.152231 97.556604,112.69748 C99.5576344,113.242729 106.288373,111.970481 107.92558,113.060979 C109.562787,114.151478 112.473376,116.150725 110.654258,116.332475 C108.835139,116.514224 104.287343,113.969728 103.377783,115.968975 C102.468224,117.968222 100.285282,121.421467 103.923519,121.603217 C107.561756,121.784966 112.473376,120.330969 111.927641,124.511212 C111.381905,128.691456 100.649106,126.510459 99.0118989,127.055708 C97.3746921,127.600958 101.922489,129.781954 104.469255,131.962951 C107.016021,134.143948 106.288373,137.960692 108.471315,139.05119 C110.654258,140.141689 111.199993,139.778189 113.564847,137.051943 C115.929702,134.325697 118.112644,133.962198 119.567939,135.416196 C121.023234,136.870194 123.024264,141.413937 126.844413,142.140936 C130.664562,142.867935 133.029416,143.231434 135.39427,145.048931 C137.759125,146.866429 145.581334,153.591168 150.311043,156.499164 C155.040751,159.40716 157.405605,157.044413 161.407666,156.499164 C164.90765,156.022253 165.485402,158.047672 165.211079,159.778656 C165.742262,159.660882 166.193403,159.588909 166.501198,159.588909 C168.320317,159.588909 169.5937,159.40716 170.685171,157.953162 L170.685171,157.953162 Z" id="Stroke-13" stroke-width="2" fill="#0a1e3d"></path>
            <path d="M291.110821,101.792496 C292.02038,105.245741 291.474645,109.244235 292.384204,110.698233 C293.293763,112.152231 296.386265,113.424479 297.113912,116.150725 C297.84156,118.876971 296.553624,120.205198 300.752149,119.785719 C302.571268,119.60397 302.75318,124.874712 302.935092,126.14696 C303.117003,127.419208 303.662739,128.509706 306.755241,126.873959 C309.847742,125.238211 310.029654,125.78346 310.939213,127.055708 C311.848773,128.327956 312.940244,128.327956 315.305098,127.237458 C317.669952,126.14696 318.579511,129.781954 319.125247,130.872453 C319.670983,131.962951 316.214657,134.325697 317.124217,134.870947 C318.033776,135.416196 320.580542,135.597946 323.491132,134.689197 C325.027195,134.209378 329.199526,134.034171 332.796287,133.974557 C332.827576,133.909854 332.855954,133.848786 332.890153,133.780448 C335.073096,129.418455 333.374767,126.025551 335.315402,125.298552 C337.256038,124.571553 341.863502,123.845281 343.561831,123.360373 C344.574716,123.071754 344.729705,122.874011 345.456625,123.321842 C345.666915,121.864209 345.88812,120.607228 345.987807,120.20956 C346.230114,119.24047 348.898397,116.332475 350.353692,114.151478 C351.808987,111.970481 348.898397,113.424479 347.685409,112.212572 C346.47242,111.001392 348.413056,110.516483 347.928443,108.820395 C347.44383,107.123579 347.200795,103.973493 348.413056,102.034587 C348.595696,101.743061 348.795799,101.498062 349.006089,101.2756 C346.657971,100.441732 343.986777,99.445744 342.9557,98.8845008 C340.95467,97.7940025 340.045111,96.5217544 340.045111,93.7955085 C340.045111,91.0692626 338.95364,90.3422637 337.134521,89.2517653 C335.315402,88.161267 334.405843,91.9780112 332.768636,92.3415107 C331.13143,92.7050101 324.764515,91.7962615 322.39966,91.6145118 C320.034806,91.432762 316.760393,86.16202 314.941274,86.16202 C313.122156,86.16202 312.212596,87.9795173 310.029654,87.6160178 C307.846712,87.2525183 307.300976,85.6167708 305.845681,86.16202 C304.390386,86.7072692 301.297885,87.6160178 299.478766,87.4342681 C298.621598,87.3484822 297.079713,86.4135616 295.553836,85.2801703 C295.312257,85.6814737 295.063402,86.166382 294.809453,86.7676101 C292.869545,91.3724211 292.62651,91.8566024 291.171216,91.8566024 C289.715921,91.8566024 286.563024,92.5836013 288.018319,95.4915969 C288.734324,96.9230578 288.860935,97.9423102 288.605531,98.8401539 C289.870182,99.7103716 290.821945,100.696182 291.110821,101.792496 L291.110821,101.792496 Z" id="Stroke-18" stroke-width="2" fill="#0a1e3d"></path>
            <path d="M242.193267,176.647066 C243.300746,175.088381 246.546054,162.120174 247.270063,159.407014 C247.997711,156.680768 248.179622,156.499019 249.453005,157.953016 C250.726388,159.407014 252.545507,157.226018 252.909331,155.40852 C253.273154,153.591023 255.456097,156.862518 256.547568,156.862518 C257.639039,156.862518 262.914483,150.501278 263.460218,149.22903 C264.005954,147.956781 265.097425,146.502784 266.370808,145.412285 C267.644191,144.321787 266.734632,142.867789 266.55272,141.413791 C266.370808,139.959794 266.916544,137.051798 268.008015,136.324799 C269.099486,135.5978 271.46434,133.416803 268.371839,131.781056 C267.396063,131.264887 264.721231,129.92212 260.731541,128.327811 C256.183744,126.510314 254.910361,126.328564 255.092273,124.147567 C255.274185,121.966571 255.81992,119.422074 252.727419,118.149826 C249.634917,116.877578 244.359473,120.694323 242.358443,120.876072 C240.357412,121.057822 241.448884,117.422827 239.629765,117.422827 C237.810646,117.422827 239.447853,116.150579 237.628735,114.514832 C235.809616,112.879084 234.718145,114.333082 233.080938,115.241831 C231.443731,116.150579 231.625643,114.333082 229.078877,115.241831 C226.532111,116.150579 224.712993,118.513326 223.257698,117.241078 C221.802403,115.96883 220.165196,118.331576 219.073725,117.059328 C217.982254,115.78708 218.346078,115.241831 215.6174,114.696582 C214.190483,114.411598 212.767932,114.375975 211.731035,114.405782 C211.63353,116.264718 211.515651,118.330122 211.615339,119.422074 C211.797251,121.421321 209.250485,123.784068 209.068573,126.328564 C208.886661,128.87306 210.887692,132.689804 211.433427,134.689051 C211.979163,136.688298 209.79622,137.960547 207.613278,139.232795 C205.430336,140.505043 203.429305,147.411532 202.155922,147.775032 C200.882539,148.138531 198.517685,145.230536 197.790038,144.685286 C197.06239,144.140037 193.242241,146.866283 191.059299,148.68378 C188.876357,150.501278 181.236059,150.137778 178.325469,150.683027 C175.414879,151.228277 175.778703,156.499019 174.50532,157.589517 C173.231937,158.680015 171.776642,156.499019 170.685171,157.953016 C169.5937,159.407014 168.320317,159.588764 166.501198,159.588764 C166.193403,159.588764 165.742262,159.660737 165.211079,159.778511 C165.171059,160.027144 165.114302,160.269962 165.045903,160.497513 C164.500168,162.31501 160.134283,167.040503 162.317225,167.767502 C164.500168,168.494501 167.410757,171.584246 168.866052,170.675497 C170.321347,169.766749 174.687232,163.587258 177.41591,165.768255 C180.144588,167.949251 183.237089,172.856494 180.144588,170.857247 C177.052086,168.858 173.777672,167.404002 173.231937,169.403249 C172.686201,171.402496 173.231937,171.765996 172.322378,173.401743 C171.412818,175.037491 169.411788,174.855741 172.868113,177.036738 C176.324438,179.217734 178.689293,178.854235 177.052086,181.580481 C175.414879,184.306727 170.321347,185.942474 173.413849,189.759219 C176.50635,193.575963 179.598852,197.514843 181.054147,200.90702 C182.509442,204.299197 182.267135,206.238103 187.846008,209.146098 C193.424153,212.054094 199.244605,216.658178 200.700627,216.173997 C202.905399,214.738174 205.592601,212.980291 206.339895,212.659684 C207.613278,212.114435 210.887692,211.750935 212.342986,213.750182 C213.798281,215.749429 215.6174,214.295432 217.61843,213.931932 C219.619461,213.568433 221.802403,212.477934 220.347108,211.569186 C218.891813,210.660437 218.346078,209.751688 219.255637,207.025442 C220.165196,204.299197 219.255637,203.753947 218.891813,200.482452 C218.52799,197.210957 218.52799,194.121212 216.526959,191.394966 C214.525929,188.66872 210.887692,184.488476 211.433427,184.306727 C211.979163,184.124977 218.52799,184.488476 219.983284,184.306727 C221.438579,184.124977 221.984315,182.670979 222.893874,181.216981 C223.803433,179.762984 224.167257,181.035232 225.622552,181.398731 C227.077847,181.762231 231.26182,180.126483 233.080938,180.126483 C234.900057,180.126483 236.355352,181.94398 237.264911,181.035232 C238.17447,180.126483 241.08506,178.127236 242.176531,176.673238 C242.181625,176.665968 242.188173,176.654336 242.193267,176.647066" id="Stroke-23" stroke-width="2" fill="#0a1e3d"></path>
            <path d="M313.97132,208.661335 C315.668922,207.934337 320.520147,209.146244 321.490101,207.934337 C322.460055,206.722429 319.550193,203.330979 321.247795,201.876255 C322.945396,200.422257 323.91535,199.695258 326.098292,199.21035 C328.281235,198.725441 329.494951,198.725441 329.979564,197.271444 C330.464177,195.817446 331.920199,195.333265 333.617801,196.060263 C333.903039,196.181672 334.154077,196.348155 334.396384,196.531359 C334.92029,193.152268 335.551888,189.56162 335.800743,187.820458 C336.285356,184.428281 334.587755,178.370199 333.13246,175.704294 C331.677165,173.038389 328.038928,173.038389 329.494223,171.099483 C330.949518,169.161304 332.647847,166.253308 331.434859,165.283492 C330.22187,164.314402 327.796621,163.102495 329.979564,161.648497 C332.162506,160.194499 330.22187,157.529321 330.22187,154.863416 C330.22187,152.197512 331.434859,152.92451 333.617801,150.501423 C335.800743,148.078336 333.617073,147.351337 335.557709,144.443341 C337.498345,141.535346 338.469026,140.565529 336.528391,137.657533 C334.618316,134.795339 330.833094,138.031938 332.796287,133.974557 C329.199526,134.034171 325.027195,134.209378 323.491132,134.689197 C320.580542,135.597946 318.033776,135.416196 317.124217,134.870947 C316.214657,134.325697 319.670983,131.962951 319.125247,130.872453 C318.579511,129.781954 317.669952,126.14696 315.305098,127.237458 C312.940244,128.327956 311.848773,128.327956 310.939213,127.055708 C310.029654,125.78346 309.847742,125.238211 306.755241,126.873959 C303.662739,128.509706 303.117003,127.419208 302.935092,126.14696 C302.75318,124.874712 302.571268,119.60397 300.752149,119.785719 C296.553624,120.205198 297.84156,118.876971 297.113912,116.150725 C296.386265,113.424479 293.293763,112.152231 292.384204,110.698233 C291.474645,109.244235 292.02038,105.245741 291.110821,101.792496 C290.821945,100.696182 289.870182,99.7103716 288.605531,98.8401539 C288.340667,99.7670775 287.668321,100.565322 286.806059,101.550406 C285.10773,103.488585 283.895469,106.15449 280.014198,104.942583 C276.133654,103.731403 272.25311,106.881489 268.371839,109.547394 C267.644191,110.152984 267.826103,110.334734 268.55375,111.970481 C269.281398,113.606229 272.010076,119.05872 272.010076,119.60397 C272.010076,120.149219 270.736693,121.603217 268.735662,123.965963 C266.734632,126.328709 265.461249,127.055708 265.825073,128.873206 C265.870187,129.096394 265.894927,129.282506 265.896382,129.43663 C266.565818,130.421713 267.396063,131.265032 268.371839,131.781201 C271.46434,133.416949 269.099486,135.597946 268.008015,136.324944 C266.916544,137.051943 266.370808,139.959939 266.55272,141.413937 C266.734632,142.867935 267.644191,144.321932 266.370808,145.412431 C265.097425,146.502929 264.005954,147.956927 263.460218,149.229175 C262.914483,150.501423 257.639039,156.862663 256.547568,156.862663 C255.456097,156.862663 253.273154,153.591168 252.909331,155.408666 C252.545507,157.226163 250.726388,159.40716 249.453005,157.953162 C248.179622,156.499164 247.997711,156.680914 247.270063,159.40716 C246.546054,162.12032 243.300746,175.088526 242.193267,176.647212 C243.162493,177.558868 243.989101,178.342573 244.359473,178.490881 C245.269033,178.85438 247.633887,179.763129 246.542416,181.035377 C245.450945,182.307625 247.451975,183.034624 248.725358,182.852874 C249.998741,182.671125 249.453005,187.214868 250.362565,187.578367 C251.272124,187.941867 254.546537,188.305366 256.365656,187.033118 C258.184775,185.76087 258.73051,184.125122 259.821981,184.852121 C260.913452,185.57912 263.278307,189.032365 264.369778,191.758611 C265.461249,194.484857 267.644191,197.574602 267.462279,200.119098 C267.280367,202.663594 267.280367,203.935843 269.281398,205.026341 C271.282428,206.116839 274.37493,208.116086 274.920666,208.661335 C275.466401,209.206585 275.830225,211.205832 276.921696,212.11458 C278.013167,213.023329 277.831255,214.295577 280.196109,213.750328 C282.560964,213.205079 282.560964,214.840826 283.834347,215.022576 C285.10773,215.204326 286.017289,212.11458 287.654496,212.47808 C289.291702,212.841579 292.202292,215.022576 293.475675,213.932077 C294.749058,212.841579 294.749058,210.478833 297.659648,211.024082 C300.570237,211.569331 305.663769,212.659829 307.6648,212.841579 C308.522696,212.919368 309.278722,212.630749 309.864478,212.417012 C311.583909,210.568254 313.201469,208.990666 313.97132,208.661335 L313.97132,208.661335 Z" id="Stroke-27" stroke-width="2" fill="#0a1e3d"></path>
            <path d="M349.00638,101.275237 C348.79609,101.498425 348.595987,101.743424 348.413347,102.034951 C347.201087,103.97313 347.444121,107.123216 347.928734,108.820031 C348.413347,110.51612 346.472711,111.001028 347.6857,112.212935 C348.898688,113.424115 351.809278,111.970118 350.353983,114.151114 C348.898688,116.332111 346.230405,119.240834 345.988098,120.209923 C345.888411,120.607592 345.666478,121.864573 345.456188,123.322206 C345.948805,123.625364 346.70192,124.22223 348.171041,125.298916 C351.809278,127.964094 354.477561,127.964821 353.264573,129.903 C352.051584,131.841906 349.626335,132.568178 351.323937,133.780085 C353.021538,134.991992 352.536198,134.749174 355.204481,134.507084 C357.872764,134.264993 355.447515,133.780085 358.358105,138.384896 C361.268694,142.98898 361.511729,147.108883 364.906932,145.169977 C368.302134,143.231071 370.243498,141.7778 372.183406,143.715979 C374.123314,145.654885 374.608655,142.01989 376.06395,142.261981 C377.519244,142.504072 380.430562,143.473888 381.642822,142.01989 C382.855083,140.565893 383.098117,138.384896 385.523366,139.353985 C387.948615,140.323075 391.345273,141.777073 391.102239,143.473888 C390.859205,145.169977 393.770522,144.927159 394.012829,147.593064 C394.255135,150.258969 391.586852,151.228058 393.769795,152.924874 C395.952737,154.620962 395.225089,157.044777 398.135679,156.801959 C401.046269,156.559868 399.34794,155.832143 402.501564,157.771049 C405.655188,159.709955 403.229939,163.102859 408.565777,158.740865 C413.901616,154.378872 415.356911,156.801959 417.539853,154.863053 C419.722795,152.924874 415.599218,151.228058 419.722795,148.320063 C423.846373,145.412067 422.633385,141.050074 428.454565,139.838894 C434.275744,138.626986 431.607461,144.685068 433.548097,143.958069 C435.488732,143.231071 435.731039,143.958796 440.824571,142.98898 C445.918103,142.01989 446.402716,142.261981 449.070999,144.685068 C451.739282,147.108883 454.649872,150.258969 456.105167,150.50106 C457.560462,150.743877 459.015029,152.924874 458.530416,155.347961 C458.045803,157.771049 461.197971,158.013866 462.168653,159.709955 C462.764596,160.752471 462.445887,162.161395 462.392041,163.767336 C465.047954,164.980697 465.490364,166.18388 468.657085,164.314039 C472.659146,161.951292 476.479295,157.04405 476.297383,155.953551 C476.115471,154.863053 472.477234,154.681303 473.386794,150.13756 C474.296353,145.593817 476.180232,144.905349 474.478265,132.144337 C474.114441,129.418091 479.753709,121.239354 480.481356,116.69561 C481.209003,112.151867 479.389885,109.789121 481.209003,107.971624 C483.028122,106.154126 490.122685,97.6118892 490.66842,94.5221439 C491.214156,91.4323985 492.851362,93.795145 487.394007,90.8871494 C481.936651,87.9791538 476.843119,90.3419002 474.296353,90.3419002 C471.749587,90.3419002 469.020909,86.1616565 467.20179,84.525909 C465.382672,82.8901614 463.927377,87.6156543 463.017818,87.9791538 C462.108258,88.3426532 456.832815,86.7069057 455.923255,86.7069057 C455.013696,86.7069057 454.46796,82.8901614 451.375459,83.0719111 C448.282957,83.2536609 448.464869,88.8879024 446.463839,85.798157 C444.462808,82.7084117 440.824571,73.8026751 435.731039,72.1669276 C430.637507,70.53118 426.089711,73.2574259 424.998239,73.9844248 C423.906768,74.7114237 419.17706,71.0764292 417.357941,69.8041811 C415.538823,68.5319331 410.263379,72.8939265 408.626172,72.1669276 C406.988965,71.4399287 403.168816,64.7151888 400.985874,63.8064402 C398.802932,62.8976915 396.074254,60.1714456 394.073224,59.6261965 C392.072193,59.0809473 389.343515,59.8079462 389.889251,56.3547014 C390.434986,52.9014566 386.796749,52.9014566 388.070132,50.3569604 C389.343515,47.8124643 391.344546,43.6322206 390.616898,42.5417222 C389.889251,41.4512238 384.613807,43.6322206 384.249983,45.0862184 C383.886159,46.5402162 383.886159,50.1752107 382.612776,50.1752107 C381.339393,50.1752107 377.701156,54.7189539 374.790567,52.9014566 C373.761673,52.2595166 372.600348,52.0726778 371.612203,51.9367291 C371.321144,52.7502408 371.099939,53.6255475 370.970418,54.5372041 C370.485804,57.930108 371.213452,63.261191 368.545169,64.7151888 C365.876886,66.1691866 364.906932,70.531907 364.906932,71.5009966 C364.906932,73.197085 366.119192,80.2249834 362.966296,78.528168 C359.813399,76.8320795 358.843445,79.9828928 356.660503,80.9519823 C354.477561,81.9210719 351.809278,81.6782542 353.264573,84.8290675 C354.719867,87.9791538 354.962174,88.7061527 352.779232,90.6450587 C350.596289,92.5839648 353.991492,92.8260554 352.779232,96.46105 C351.749611,99.5486143 350.194628,100.016802 349.00638,101.275237" id="Stroke-32" stroke-width="2" fill="#0a1e3d"></path>
            <path d="M332.79636,133.974557 C330.833167,138.031938 334.618389,134.795339 336.528463,137.657533 C338.469099,140.565529 337.498417,141.535346 335.557782,144.443341 C333.617146,147.351337 335.800816,148.078336 333.617874,150.501423 C331.434931,152.92451 330.221943,152.197512 330.221943,154.863416 C330.221943,157.528594 332.162579,160.194499 329.979636,161.648497 C327.796694,163.102495 330.221943,164.314402 331.434931,165.283492 C332.64792,166.253308 330.949591,169.161304 329.494296,171.099483 C328.039001,173.038389 331.677238,173.038389 333.132533,175.704294 C334.587828,178.370199 336.285429,184.428281 335.800816,187.820458 C335.551961,189.56162 334.920363,193.152268 334.396456,196.531359 C335.594892,197.440834 336.409857,199.010425 338.226065,200.42153 C340.409007,202.118345 343.07729,200.907165 344.774892,200.179439 C346.472493,199.45244 346.473221,201.149256 348.170822,202.118345 C349.868424,203.087435 352.050638,197.271444 353.748968,199.694531 C355.447297,202.118345 355.204262,205.268432 357.144898,206.722429 C359.085534,208.176427 364.421372,210.115333 365.14902,212.29633 C365.876667,214.477327 366.118974,217.627413 365.391326,218.112321 C364.663679,218.597229 361.753089,219.082138 362.23843,220.778226 C362.723771,222.474315 363.451418,226.3514 364.906713,225.38231 C366.362008,224.413221 367.574269,223.443404 370.242552,224.170403 C372.910835,224.897402 374.608436,225.624401 376.063731,224.170403 C377.519026,222.716405 376.791379,219.081411 378.974321,218.83932 C381.157263,218.597229 383.097171,221.989406 384.31016,220.535409 C385.523148,219.081411 386.97917,216.900414 387.463784,219.566319 C387.948397,222.232224 388.43301,228.289579 390.131339,223.443404 C391.829668,218.597229 393.769576,213.750328 394.254917,211.569331 C394.740258,209.388334 396.195553,208.903426 397.650848,210.115333 C399.106143,211.32724 399.590756,208.903426 402.501345,209.388334 C405.411935,209.873243 405.897276,208.903426 407.352571,211.569331 C408.807866,214.235236 410.020854,219.565592 412.446103,219.081411 C414.871352,218.597229 416.326647,213.750328 417.781942,216.658323 C419.237236,219.566319 419.480271,221.504498 421.177872,219.80841 C422.612793,218.374768 427.335225,213.839022 431.54612,212.171286 C431.538844,209.980838 431.554124,206.671539 435.548909,203.027094 C439.732882,199.21035 440.105437,200.446975 442.825383,189.032365 C443.734942,185.215621 449.738034,183.579873 454.467742,177.763882 C459.19745,171.947891 458.287891,172.31139 459.561274,170.675643 C460.834657,169.039895 458.287891,169.221645 456.104949,168.131146 C453.922006,167.040648 454.467742,161.588156 459.743186,162.860404 C460.844844,163.125759 461.691826,163.447093 462.39255,163.766972 C462.446396,162.161758 462.764378,160.752108 462.168435,159.710318 C461.197753,158.01423 458.045584,157.771412 458.530198,155.348325 C459.014811,152.925237 457.560244,150.743514 456.104949,150.501423 C454.649654,150.258605 451.739064,147.108519 449.070781,144.685432 C446.402498,142.261617 445.917885,142.019527 440.824353,142.989343 C435.730821,143.958433 435.488514,143.231434 433.547878,143.958433 C431.607243,144.685432 434.275526,138.62735 428.454346,139.83853 C422.633167,141.050437 423.846155,145.412431 419.722577,148.320426 C415.598999,151.228422 419.722577,152.92451 417.539635,154.863416 C415.356693,156.801596 413.901398,154.378508 408.565559,158.740502 C403.229721,163.102495 405.654969,159.710318 402.501345,157.771412 C399.347721,155.832506 401.046051,156.559505 398.135461,156.802323 C395.224871,157.044413 395.952519,154.621326 393.769576,152.92451 C391.586634,151.228422 394.254917,150.259332 394.01261,147.593427 C393.770304,144.927522 390.858987,145.17034 391.102021,143.473525 C391.345055,141.777436 387.948397,140.323438 385.523148,139.354349 C383.097899,138.385259 382.854865,140.565529 381.642604,142.019527 C380.430344,143.473525 377.519026,142.504435 376.063731,142.262344 C374.608436,142.020254 374.123096,145.654521 372.183188,143.716342 C370.243279,141.777436 368.301916,143.231434 364.906713,145.17034 C361.51151,147.109246 361.268476,142.989343 358.357886,138.384532 C355.447297,133.780448 357.872545,134.265357 355.204262,134.507447 C352.535979,134.749538 353.02132,134.992355 351.323719,133.780448 C349.626117,132.568541 352.051366,131.841542 353.264354,129.903363 C354.477343,127.964457 351.809059,127.964457 348.170822,125.298552 C346.701702,124.222594 345.948587,123.625728 345.45597,123.321842 C344.72905,122.873284 344.574789,123.071027 343.561903,123.360373 C341.863574,123.845281 337.256111,124.571553 335.315475,125.298552 C333.374839,126.025551 335.073169,129.418455 332.890226,133.780448 C332.856027,133.848786 332.827649,133.909854 332.79636,133.974557 L332.79636,133.974557 Z" id="Stroke-36" stroke-width="2" fill="#0a1e3d"></path>
            <path d="M303.657427,279.101423 C305.396505,278.623784 304.753992,277.126893 304.753992,276.271943 C304.753992,275.363194 306.755022,273.000448 307.846494,272.273449 C308.937965,271.54645 306.57311,270.455952 307.664582,268.456705 C308.756053,266.457458 311.848554,265.912208 311.848554,262.277214 C311.848554,258.642219 313.303849,259.369218 315.850615,260.459717 C318.397381,261.550215 317.487822,258.642219 317.851646,257.188222 C318.215469,255.734224 316.760175,249.918232 316.942086,248.100735 C317.123998,246.283238 316.214439,243.738742 314.759144,241.921245 C313.303849,240.103747 316.396351,237.559251 319.306941,235.741754 C322.21753,233.924257 320.580324,231.37976 320.580324,229.380513 C320.580324,227.381266 319.306941,224.109771 318.397381,221.201776 C317.487822,218.29378 314.577232,217.566781 312.940026,217.566781 C311.302819,217.566781 311.120907,214.840535 311.120907,213.023038 C311.120907,211.985611 310.645026,212.133918 309.864987,212.416721 C309.279231,212.630459 308.523206,212.919804 307.664582,212.841288 C305.663551,212.659539 300.570019,211.56904 297.659429,211.023791 C294.74884,210.478542 294.74884,212.841288 293.475457,213.931787 C292.202074,215.022285 289.291484,212.841288 287.654277,212.477789 C286.017071,212.114289 285.107511,215.204035 283.834128,215.022285 C282.560745,214.840535 282.560745,213.204788 280.195891,213.750037 C277.831037,214.295286 278.012949,213.023038 276.921478,212.114289 C275.830006,211.205541 275.466183,209.206294 274.920447,208.661045 C274.374712,208.115795 271.28221,206.116548 269.28118,205.02605 C267.280149,203.935552 267.280149,202.663304 267.462061,200.118808 C267.643973,197.574311 265.461031,194.484566 264.369559,191.75832 C263.278088,189.032074 260.913234,185.578829 259.821763,184.851831 C258.730292,184.124832 258.184556,185.760579 256.365438,187.032827 C254.546319,188.305075 251.271906,187.941576 250.362346,187.578076 C249.452787,187.214577 249.998523,182.670834 248.72514,182.852584 C247.451757,183.034333 245.450726,182.307334 246.542197,181.035086 C247.633669,179.762838 245.268814,178.85409 244.359255,178.49059 C243.988883,178.343009 243.162275,177.558577 242.193049,176.646921 C242.187955,176.654918 242.182134,176.66655 242.176313,176.673093 C241.084842,178.127091 238.174252,180.126338 237.264693,181.035086 C236.355133,181.943835 234.899838,180.126338 233.08072,180.126338 C231.261601,180.126338 227.077629,181.762085 225.622334,181.398586 C224.167039,181.035086 223.803215,179.762838 222.893656,181.216836 C221.984097,182.670834 221.438361,184.124832 219.983066,184.306581 C218.527771,184.488331 211.978944,184.124832 211.433209,184.306581 C210.887473,184.488331 214.52571,188.668575 216.526741,191.394821 C218.527771,194.121067 218.527771,197.210812 218.891595,200.482307 C219.255419,203.753802 220.164978,204.299051 219.255419,207.025297 C218.345859,209.751543 218.891595,210.660292 220.34689,211.56904 C221.802185,212.477789 219.619242,213.568287 217.618212,213.931787 C215.617182,214.295286 213.798063,215.749284 212.342768,213.750037 C210.887473,211.75079 207.61306,212.114289 206.339677,212.659539 C205.592383,212.980145 202.905909,214.738028 200.700409,216.173851 L200.700409,216.173851 C202.155704,215.688943 200.458103,219.566028 200.700409,221.747025 C200.943443,223.928022 204.581681,227.078108 203.854033,230.471012 C203.126386,233.863916 202.398738,236.044185 200.943443,237.014002 C199.488149,237.983818 197.062172,236.529094 197.789819,239.194999 C198.517467,241.860904 195.849911,240.649723 205.309328,247.434804 C214.768745,254.219885 214.041097,257.369971 214.283404,261.004966 C214.52571,264.63996 219.619242,272.637675 217.679334,272.879766 C215.738699,273.121857 215.011051,273.364674 213.070416,266.336776 C211.130507,259.308877 207.734577,256.642972 204.823987,253.734977 C201.913397,250.826981 199.972762,248.888075 199.488149,252.280979 C199.002808,255.673883 196.335252,281.118844 195.364571,285.480838 C194.394617,289.842831 196.577559,292.751554 195.122264,296.143731 C193.666969,299.535908 188.330403,321.588692 186.875108,328.131683 C185.419813,334.674673 179.84094,344.85193 178.143339,345.336839 C176.445737,345.821747 173.049807,345.822474 173.292841,347.033654 C173.535148,348.244834 176.688772,352.36401 178.62868,351.879829 C180.569315,351.395648 183.964518,349.699559 184.692166,352.122646 C185.419813,354.545734 186.389767,355.514823 185.419813,356.968821 C184.449859,358.422819 181.781576,360.846633 183.236871,361.573632 C184.692166,362.300631 185.66212,360.360998 190.513345,362.784812 C195.364571,365.208627 199.972762,368.115895 202.155704,367.873805 C204.338646,367.631714 207.49227,366.904715 208.947565,369.812711 C210.40286,372.720706 210.888201,375.628702 217.193994,374.174704 C219.014567,373.755226 220.360715,373.584381 221.43254,373.609099 C221.565699,371.516796 221.976092,369.316898 222.893656,368.055554 C224.348951,366.056308 230.897778,356.241822 232.171161,354.969574 C233.444544,353.697326 233.262632,353.333827 233.626455,351.516329 C233.990279,349.698832 232.171161,346.609087 231.443513,343.519341 C230.715866,340.429596 228.532923,339.884347 225.622334,340.247846 C222.711744,340.611346 224.167039,338.248599 225.440422,336.431102 C226.713805,334.613605 227.805276,333.886606 227.987188,331.34211 C228.1691,328.797614 227.25954,326.071368 228.351012,324.43562 C229.442483,322.799873 230.897778,323.708621 233.08072,322.799873 C235.263662,321.891124 235.445574,325.526119 235.99131,325.526119 C236.537045,325.526119 236.173221,322.618123 236.718957,322.254623 C237.264693,321.891124 238.174252,323.345122 239.083811,322.981622 C239.99337,322.618123 240.90293,320.618876 242.176313,321.345875 C243.449696,322.072874 245.086903,322.072874 247.451757,320.982375 C249.816611,319.891877 251.089994,317.347381 253.454848,319.346628 C255.819702,321.345875 257.638821,319.891877 258.730292,319.346628 C259.821763,318.801379 260.003675,315.529884 261.095146,316.075133 C262.186617,316.620382 262.732353,315.893383 263.278088,314.075886 C263.823824,312.258389 263.278088,314.075886 264.733383,312.076639 C266.188678,310.077392 264.915295,310.077392 263.641912,309.713892 C262.368529,309.350393 264.005736,306.442397 264.733383,305.715398 C265.461031,304.9884 269.099268,306.805897 269.645003,305.533649 C270.190739,304.261401 267.643973,299.899407 267.643973,298.627159 C267.643973,297.354911 270.008827,296.446162 272.009857,294.992165 C274.010888,293.538167 275.830006,290.630171 277.831037,288.267425 C279.832067,285.904678 282.196922,283.541932 282.196922,281.906184 C282.196922,280.270437 282.560745,277.90769 284.561776,276.998942 C286.562806,276.090193 288.92766,276.817192 290.564867,278.998189 C292.202074,281.179185 294.021192,281.724435 295.476487,280.997436 C296.931782,280.270437 301.115755,279.543438 303.298697,279.179938 C303.428946,279.158855 303.547552,279.131956 303.657427,279.101423 L303.657427,279.101423 Z" id="Stroke-41" stroke-width="2" fill="#0a1e3d"></path>
            <path d="M334.396602,196.531286 C334.154295,196.348082 333.902529,196.182327 333.618019,196.060191 C331.920418,195.333192 330.464395,195.8181 329.979782,197.272098 C329.495169,198.726096 328.281453,198.726096 326.098511,199.210277 C323.915568,199.695185 322.945614,200.422184 321.248013,201.876182 C319.550411,203.330907 322.460273,206.722357 321.490319,207.934264 C320.520365,209.146171 315.66914,207.934264 313.971539,208.661263 C313.201688,208.990593 311.5834,210.568181 309.864696,212.416939 C308.928942,213.614306 311.121344,211.985102 311.121344,213.023256 C311.121344,214.840753 311.303255,217.566999 312.940462,217.566999 C314.577669,217.566999 317.488259,218.293998 318.397818,221.201994 C319.307377,224.109989 320.58076,227.381485 320.58076,229.380732 C320.58076,231.379979 322.217967,233.924475 319.307377,235.741972 C316.396787,237.559469 313.304286,240.103965 314.759581,241.921463 C316.214876,243.73896 317.124435,246.283456 316.942523,248.100953 C316.760611,249.918451 318.215906,255.734442 317.852082,257.18844 C317.488259,258.642437 318.397818,261.550433 315.851052,260.459935 C313.304286,259.369436 311.848991,258.642437 311.848991,262.277432 C311.848991,265.912426 308.756489,266.457676 307.665018,268.456923 C306.573547,270.45617 308.938401,271.546668 307.84693,272.273667 C306.755459,273.000666 304.754429,275.363412 304.754429,276.272161 C304.754429,277.127112 305.396214,278.623275 303.657136,279.101641 C304.418983,280.640697 305.116069,282.25827 305.300164,283.17865 C305.663988,284.996148 306.209723,287.358894 305.8459,289.176391 C305.482076,290.993889 305.118252,292.811386 305.8459,293.538385 C306.573547,294.265384 306.573547,295.355882 307.665018,294.810633 C308.756489,294.265384 310.211784,292.993136 311.485167,293.356635 C312.75855,293.720135 315.123404,295.901131 315.851052,294.447133 C316.578699,292.993136 320.398848,283.7239 322.945614,281.361153 C325.49238,278.998407 324.946645,280.088905 325.49238,282.088152 C326.038116,284.087399 326.220028,283.17865 328.039146,283.7239 C329.858265,284.269149 331.131648,285.723147 331.31356,288.085893 C331.495472,290.44864 331.495472,292.993136 332.586943,292.993136 C333.678414,292.993136 334.587973,287.904143 335.497532,286.086646 C336.407092,284.269149 336.770916,286.995395 338.590034,284.450899 C340.409153,281.906402 341.318712,280.815904 343.137831,280.270655 C344.956949,279.725406 345.502685,278.816657 346.776068,282.088152 C348.049451,285.359647 347.321803,288.085893 350.596217,285.723147 C353.87063,283.3604 353.324895,283.54215 355.871661,285.541397 C358.418427,287.540644 360.419457,287.540644 360.783281,289.539891 C361.147104,291.539138 361.147104,292.084387 362.602399,294.992383 C364.057694,297.900378 365.149165,302.444121 366.60446,303.35287 C368.059755,304.261619 367.514019,307.896613 368.969314,308.805362 C370.424609,309.71411 372.789463,312.622106 374.42667,311.713357 C376.063877,310.804609 376.427701,306.442615 378.246819,307.714863 C380.065938,308.987112 381.339321,311.168108 382.430792,309.71411 C383.522263,308.260113 383.704175,306.442615 385.705205,309.168861 C385.81508,309.318623 385.931504,309.462569 386.05011,309.605788 C389.141156,306.549484 392.051019,308.838804 392.98168,310.07761 C394.073151,311.531608 393.709327,313.349105 395.164622,312.803856 C396.619917,312.258607 403.350656,308.260113 403.896391,309.350611 C404.442127,310.441109 404.078303,313.349105 405.169774,313.712604 C406.261245,314.076104 409.899482,312.440356 411.172865,313.894354 C412.446248,315.348352 415.174926,316.6206 417.53978,316.257101 C419.904635,315.893601 420.632282,315.166602 420.996106,314.439603 C421.359929,313.712604 420.632282,311.895107 420.45037,309.71411 C420.268458,307.533114 418.085516,308.260113 415.720662,308.078363 C413.355808,307.896613 413.719631,305.715617 413.355808,303.71637 C412.991984,301.717123 413.719631,300.808374 415.53875,300.626624 C417.357869,300.444874 419.176987,300.990124 420.45037,300.263125 C421.723753,299.536126 419.540811,298.627377 418.267428,297.536879 C416.994045,296.44638 418.44934,293.901884 420.268458,293.356635 C422.087577,292.811386 423.724784,292.993136 424.452431,291.720888 C425.180078,290.44864 429.364051,285.904896 430.455522,284.814398 C431.546994,283.7239 437.550085,283.905649 439.733027,283.3604 C441.915969,282.815151 442.097881,282.815151 442.279793,280.452405 C442.461705,278.089658 441.552146,276.090411 439.551115,276.272161 C437.550085,276.453911 436.640526,277.362659 437.913909,273.364165 C439.187292,269.365671 440.824498,271.546668 443.735088,272.637166 C446.645678,273.727665 445.91803,271.910167 447.373325,271.546668 C448.146087,271.353286 449.841505,271.314755 451.399398,271.292945 C451.40813,271.183896 451.432143,271.069757 451.496903,270.941078 C452.224551,269.48708 454.406765,267.547447 456.347401,268.517264 C458.288037,269.48708 459.015684,270.455443 461.926274,267.063266 C464.836864,263.671089 467.748181,262.701272 467.505147,260.278185 C467.262112,257.855098 468.960442,257.128099 465.322204,254.462194 C461.683967,251.796289 461.440933,249.85811 461.926274,248.404112 C462.411615,246.950114 460.713286,245.980298 458.288037,245.011208 C455.862788,244.042118 453.922152,238.831717 459.743331,236.650721 C465.564511,234.469724 459.015684,229.744231 456.468918,225.382238 C453.922152,221.020244 455.195535,220.656745 456.105094,217.566999 C457.014654,214.477254 449.010532,211.751008 444.826559,213.023256 C440.642586,214.295504 436.276702,216.294751 437.004349,218.657498 C437.731997,221.020244 435.549054,225.927487 428.636404,225.382238 C421.723753,224.836988 430.27361,220.656745 431.910817,218.475748 C433.548024,216.294751 431.546994,214.659004 431.546994,212.478007 C431.546994,212.379135 431.546266,212.275174 431.546266,212.171213 C427.33537,213.838949 422.612211,218.374695 421.178018,219.808337 C419.480416,221.504425 419.237382,219.566246 417.782087,216.658251 C416.326792,213.750255 414.871497,218.597157 412.446248,219.081338 C410.021,219.565519 408.808011,214.235163 407.352716,211.569258 C405.897422,208.903353 405.412081,209.87317 402.501491,209.388262 C399.590901,208.903353 399.106288,211.327168 397.650993,210.115261 C396.195698,208.903353 394.740403,209.388262 394.255063,211.569258 C393.769722,213.750255 391.829814,218.597157 390.131485,223.443331 C388.433156,228.289506 387.948542,222.232151 387.463929,219.566246 C386.979316,216.900341 385.523293,219.081338 384.310305,220.535336 C383.097317,221.989334 381.157409,218.597157 378.974467,218.839247 C376.791524,219.081338 377.519172,222.716333 376.063877,224.17033 C374.608582,225.624328 372.910981,224.897329 370.242697,224.17033 C367.574414,223.443331 366.362154,224.413148 364.906859,225.382238 C363.451564,226.351327 362.723916,222.474242 362.238576,220.778153 C361.753235,219.082065 364.663825,218.597157 365.391472,218.112248 C366.119119,217.62734 365.876813,214.477254 365.149165,212.296257 C364.421518,210.115261 359.085679,208.176354 357.145044,206.722357 C355.204408,205.268359 355.447442,202.118273 353.749113,199.695185 C352.050784,197.271371 349.868569,203.087362 348.170968,202.118273 C346.473366,201.149183 346.472639,199.453095 344.775037,200.180094 C343.077436,200.907092 340.409153,202.118273 338.22621,200.422184 C336.410002,199.010352 335.59431,197.440762 334.396602,196.531286" id="Stroke-46" stroke-width="2" fill="#0a1e3d"></path>
            <path d="M386.050328,309.605497 C385.931722,309.463005 385.815298,309.318332 385.704696,309.168571 C383.703666,306.442325 383.521754,308.259822 382.430282,309.71382 C381.338811,311.167817 380.065428,308.986821 378.24631,307.714573 C376.427191,306.442325 376.063367,310.804318 374.426161,311.713067 C372.788954,312.621815 370.4241,309.71382 368.968805,308.805071 C367.51351,307.896322 368.059246,304.261328 366.603951,303.352579 C365.148656,302.443831 364.057185,297.900087 362.60189,294.992092 C361.146595,292.084096 361.146595,291.538847 360.782771,289.5396 C360.418948,287.540353 358.417917,287.540353 355.871151,285.541106 C353.324385,283.541859 353.870121,283.360109 350.595707,285.722856 C347.321294,288.085602 348.048941,285.359356 346.775558,282.087861 C345.502175,278.816366 344.95644,279.725115 343.137321,280.270364 C341.318203,280.815613 340.408643,281.906112 338.589525,284.450608 C336.770406,286.995104 336.406582,284.268858 335.497023,286.086355 C334.587464,287.903853 333.677905,292.992845 332.586433,292.992845 C331.494962,292.992845 331.494962,290.448349 331.31305,288.085602 C331.131139,285.722856 329.857756,284.268858 328.038637,283.723609 C326.219518,283.17836 326.037607,284.087108 325.491871,282.087861 C324.946135,280.088614 325.491871,278.998116 322.945105,281.360862 C320.398339,283.723609 316.57819,292.992845 315.850542,294.446843 C315.122895,295.90084 312.758041,293.719844 311.484658,293.356344 C310.211275,292.992845 308.75598,294.265093 307.664509,294.810342 C306.573038,295.355591 306.573038,294.265093 305.84539,293.538094 C305.117743,292.811095 305.481567,290.993598 305.84539,289.176101 C306.209214,287.358603 305.663478,284.995857 305.299655,283.17836 C305.11556,282.258706 304.418474,280.640406 303.657354,279.10135 C303.54748,279.131884 303.428873,279.158783 303.298624,279.179866 C301.115682,279.543365 296.931709,280.270364 295.476414,280.997363 C294.02112,281.724362 292.202001,281.179113 290.564794,278.998116 C288.927588,276.817119 286.562733,276.09012 284.561703,276.998869 C282.560672,277.907618 282.196849,280.270364 282.196849,281.906112 C282.196849,283.541859 279.831995,285.904606 277.830964,288.267352 C275.829934,290.630098 274.010815,293.538094 272.009785,294.992092 C270.008754,296.44609 267.6439,297.354838 267.6439,298.627086 C267.6439,299.899334 270.190666,304.261328 269.644931,305.533576 C269.099195,306.805824 265.460958,304.988327 264.73331,305.715326 C264.005663,306.442325 262.368456,309.35032 263.641839,309.71382 C264.915222,310.077319 266.188605,310.077319 264.73331,312.076566 C263.278016,314.075813 263.823751,312.258316 263.278016,314.075813 C262.73228,315.89331 262.186544,316.620309 261.095073,316.07506 C260.003602,315.529811 259.82169,318.801306 258.730219,319.346555 C257.638748,319.891804 255.819629,321.345802 253.454775,319.346555 C251.089921,317.347308 249.816538,319.891804 247.451684,320.982303 C245.08683,322.072801 243.449623,322.072801 242.17624,321.345802 C240.902857,320.618803 239.993298,322.61805 239.083738,322.98155 C238.174179,323.345049 237.26462,321.891051 236.718884,322.254551 C236.173149,322.61805 236.536972,325.526046 235.991237,325.526046 C235.445501,325.526046 235.263589,321.891051 233.080647,322.7998 C230.897705,323.708549 229.44241,322.7998 228.350939,324.435548 C227.259468,326.071295 228.169027,328.797541 227.987115,331.342037 C227.805203,333.886533 226.713732,334.613532 225.440349,336.431029 C224.166966,338.248527 222.711671,340.611273 225.622261,340.247774 C228.532851,339.884274 230.715793,340.429523 231.44344,343.519269 C232.171088,346.609014 233.990206,349.698759 233.626383,351.516257 C233.262559,353.333754 233.444471,353.697253 232.171088,354.969502 C230.897705,356.24175 224.348878,366.056235 222.893583,368.055482 C221.97602,369.316825 221.565627,371.516724 221.432467,373.609026 C224.0731,373.66864 224.997939,374.94525 226.895644,376.840537 C229.563927,379.505715 232.716823,379.748532 237.325742,379.748532 C241.933933,379.748532 240.963979,381.445348 243.146922,381.20253 C245.329864,380.959712 252.606338,384.110526 253.576292,382.898618 C254.546246,381.686711 252.120997,374.174632 255.031587,374.90163 C257.942177,375.628629 268.371548,379.506442 271.282137,381.444621 C274.192727,383.3828 277.346351,382.898618 278.801646,383.625617 C280.256941,384.352616 288.745676,384.351889 291.656265,387.744793 C294.566855,391.137697 287.532687,392.107514 289.958664,393.076603 C292.383913,394.045693 297.235138,393.317967 297.962786,395.014782 C298.690433,396.711598 297.477445,400.587956 303.298624,397.922778 C309.119804,395.2576 309.848179,395.741781 314.698677,397.922778 C319.549174,400.103775 323.188139,400.104502 324.158093,395.2576 C325.128047,390.410698 330.220852,394.287783 333.374476,394.772692 C336.5281,395.2576 337.012713,396.954415 335.557418,390.168607 C334.102123,383.3828 332.889862,376.83981 333.859816,373.204815 C334.82977,369.569821 337.01344,364.238738 341.621632,360.603743 C346.229823,356.968748 347.442811,356.968748 349.625753,356.968748 C351.808696,356.968748 356.17458,352.122574 358.599829,350.183668 C361.025078,348.244762 368.787621,343.156496 369.999881,345.094675 C370.688236,346.195352 371.300187,347.294574 372.497895,348.040475 C375.295699,345.66537 380.518753,343.025637 380.793076,341.520022 C381.156899,339.520775 379.883516,336.612779 383.339842,336.976279 C386.796167,337.339778 387.341903,336.612779 387.523815,335.158781 C387.705726,333.704784 387.887638,330.978538 387.887638,329.34279 C387.887638,327.707043 390.070581,328.615791 393.163082,326.071295 C396.255584,323.526799 391.889699,320.800553 390.070581,320.255304 C388.251462,319.710055 389.524845,317.710808 390.434404,315.529811 C391.294484,313.468769 388.09429,312.055483 386.050328,309.605497" id="Stroke-50" stroke-width="2" fill="#0a1e3d"></path>
            <path d="M474.296062,334.917054 C477.206652,333.947238 480.845616,334.674237 482.785524,331.766241 C484.725432,328.858245 481.087195,327.646338 485.938421,321.588256 C490.789646,315.530174 487.879056,316.984172 487.393716,313.349178 C486.908375,309.714183 484.967739,313.349178 481.814843,314.803176 C478.661946,316.257173 462.411396,310.925363 461.683749,306.321279 C460.956101,301.717195 462.654431,304.625918 462.411396,302.202104 C462.168362,299.778289 457.803205,298.567109 460.228454,297.355202 C462.653703,296.143295 462.168362,294.205116 462.89601,292.266209 C463.623657,290.327303 469.201802,293.478117 467.989542,290.570121 C466.777281,287.662125 462.411396,283.300132 458.287818,280.634227 C454.16424,277.968322 454.406547,278.21114 454.16424,275.303144 C453.943036,272.652506 451.313318,272.414777 451.39918,271.293018 C449.842015,271.314828 448.145868,271.353359 447.373107,271.546741 C445.917812,271.91024 446.645459,273.727737 443.73487,272.637239 C440.82428,271.546741 439.187073,269.365744 437.91369,273.364238 C436.640307,277.362732 437.549867,276.453983 439.550897,276.272234 C441.551927,276.090484 442.461487,278.089731 442.279575,280.452477 C442.097663,282.815224 441.915751,282.815224 439.732809,283.360473 C437.549867,283.905722 431.546775,283.723972 430.455304,284.814471 C429.363833,285.904969 425.17986,290.448712 424.452213,291.72096 C423.724565,292.993208 422.087359,292.811459 420.26824,293.356708 C418.449121,293.901957 416.993827,296.446453 418.26721,297.536952 C419.540593,298.62745 421.723535,299.536199 420.450152,300.263197 C419.176769,300.990196 417.35765,300.444947 415.538532,300.626697 C413.719413,300.808447 412.991766,301.717195 413.355589,303.716442 C413.719413,305.715689 413.355589,307.896686 415.720444,308.078436 C418.085298,308.260185 420.26824,307.533186 420.450152,309.714183 C420.632064,311.89518 421.359711,313.712677 420.995887,314.439676 C420.632064,315.166675 419.904416,315.893674 417.539562,316.257173 C415.174708,316.620673 412.44603,315.348425 411.172647,313.894427 C409.899264,312.440429 406.261027,314.076177 405.169556,313.712677 C404.078085,313.349178 404.441908,310.441182 403.896173,309.350684 C403.350437,308.260185 396.619698,312.258679 395.164404,312.803929 C393.709109,313.349178 394.072932,311.53168 392.981461,310.077683 C392.051528,308.838877 389.141666,306.54883 386.05062,309.60586 C388.093854,312.055847 391.294775,313.469133 390.434695,315.530174 C389.525136,317.711171 388.251753,319.710418 390.070872,320.255667 C391.88999,320.800916 396.255875,323.527162 393.163373,326.071659 C390.070872,328.616155 387.887929,327.707406 387.887929,329.343154 C387.887929,330.978901 387.706017,333.705147 387.524106,335.159145 C387.342194,336.613143 386.796458,337.340142 383.340133,336.976642 C379.883808,336.613143 381.157191,339.521138 380.793367,341.520385 C380.519044,343.025273 375.295263,345.665006 372.498186,348.040838 C373.410656,348.608625 374.661482,348.972124 376.548999,348.972124 C380.914884,348.972124 386.735336,348.487216 386.493029,350.668212 C386.250723,352.849209 387.462983,355.515114 391.586561,354.061116 C395.710139,352.607119 396.923127,349.214942 399.10607,350.184031 C401.289012,351.153121 398.863763,353.576208 401.289012,353.576208 C403.714261,353.576208 409.536168,350.184031 410.748429,352.607119 C411.960689,355.030206 409.292406,359.150836 411.233042,359.635017 C413.173678,360.119198 420.449424,358.6652 422.875401,360.604107 C425.301377,362.543013 424.57373,364.238374 426.998979,365.208191 C429.424228,366.178007 431.365591,365.693826 431.122557,363.270012 C430.879523,360.846197 433.790112,361.816014 435.730748,363.99701 C437.671384,366.178007 439.368257,365.935916 442.521881,363.99701 C445.675505,362.058104 458.530125,359.635017 456.104876,356.727021 C453.679627,353.819026 451.739719,354.061843 455.862569,350.184031 C459.98542,346.306219 461.441442,350.668212 463.139044,347.518126 C464.836645,344.36804 464.351304,342.671952 468.474882,341.460044 C472.59846,340.248137 471.385472,335.886871 474.296062,334.917054 L474.296062,334.917054 Z" id="Stroke-54" stroke-width="2" fill="#0a1e3d"></path>
            <path d="M505.039166,352.243619 C504.675342,348.608625 501.764752,348.245125 502.128576,344.79188 C502.4924,341.338636 502.674312,339.702888 502.674312,336.794892 C502.674312,333.886897 500.855193,329.161404 500.855193,329.161404 C498.672251,329.706653 497.762692,330.070153 497.944603,330.797151 C498.126515,331.52415 497.762692,340.793386 497.216956,342.610884 C496.67122,344.428381 494.852102,341.883885 491.941512,342.065634 C489.030922,342.247384 481.390624,347.699876 479.02577,349.153874 C476.660916,350.607872 473.204591,356.605613 472.658855,358.05961 C472.11312,359.513608 472.840767,360.785856 472.840767,362.785103 C472.840767,364.78435 470.839737,363.148603 471.567384,368.237595 C472.295031,373.326587 479.389594,372.417839 477.206652,373.690087 C475.023709,374.962335 471.20356,376.416333 472.295031,378.05208 C473.386503,379.687828 478.480035,378.960829 477.752387,381.141826 C477.02474,383.322822 473.932238,387.684816 476.11518,388.048315 C478.298123,388.411815 483.93739,389.684063 482.482095,390.411062 C481.026801,391.138061 476.842828,392.410309 479.753418,395.136554 C482.664007,397.8628 485.938421,401.316045 489.576658,403.133542 C493.214895,404.95104 495.761661,404.58754 497.398868,398.2263 C499.036075,391.865059 499.036075,386.776067 499.763722,383.868071 C500.491369,380.960076 502.4924,375.507584 503.947695,372.417839 C505.40299,369.328093 505.40299,355.878614 505.039166,352.243619 L505.039166,352.243619 Z" id="Stroke-59" stroke-width="2" fill="#0a1e3d"></path>

        </g>
</svg>